<?xml version="1.0" standalone="no"?>
<!DOCTYPE svg PUBLIC "-//W3C//DTD SVG 20010904//EN"
 "http://www.w3.org/TR/2001/REC-SVG-20010904/DTD/svg10.dtd">
<svg version="1.0" xmlns="http://www.w3.org/2000/svg"
 width="1002.000000pt" height="1002.000000pt" viewBox="0 0 1002.000000 1002.000000"
 preserveAspectRatio="xMidYMid meet">
<metadata>
Created by potrace 1.14, written by Peter Selinger 2001-2017
</metadata>
<g transform="translate(0.000000,1002.000000) scale(0.100000,-0.100000)"
fill="#000000" stroke="none">
<path d="M7070 10005 c33 -19 70 -19 70 0 0 11 -12 15 -47 15 -47 -1 -47 -1
-23 -15z"/>
<path d="M7190 9996 c-10 -20 -10 -28 3 -47 l16 -22 11 28 c11 28 5 65 -9 65
-4 0 -13 -11 -21 -24z"/>
<path d="M8200 9409 c0 -337 -1 -613 -3 -615 -2 -2 -37 7 -78 20 -41 13 -110
34 -154 46 -153 41 -205 61 -206 78 -6 99 -32 206 -60 244 -10 15 -19 37 -19
48 0 13 -4 18 -11 15 -6 -4 -8 -13 -5 -21 4 -10 -2 -14 -20 -14 -20 0 -29 9
-45 45 -11 25 -24 45 -28 45 -15 0 -19 -39 -8 -75 10 -33 8 -38 -23 -70 -19
-19 -37 -35 -41 -35 -3 0 -12 37 -19 83 -6 45 -16 96 -21 112 -5 17 -13 58
-19 90 l-9 60 5 -68 c3 -51 2 -67 -7 -61 -16 9 -2 -103 15 -131 7 -11 15 -41
18 -68 5 -42 3 -50 -24 -76 l-30 -29 -66 19 c-80 23 -82 23 -82 4 0 -15 9 -18
84 -33 22 -4 41 -12 43 -17 1 -6 -47 -71 -109 -145 -61 -74 -122 -153 -136
-175 -14 -22 -41 -60 -61 -85 -52 -63 -165 -225 -247 -352 -184 -284 -206
-321 -302 -498 -49 -91 -73 -123 -83 -113 -5 5 -42 77 -83 159 -93 191 -145
274 -215 347 -65 67 -89 72 -132 25 -83 -91 -223 -334 -329 -573 -10 -22 -25
-56 -34 -75 -38 -86 -81 -196 -127 -325 -60 -167 -72 -189 -102 -181 -180 50
-683 127 -1097 167 -58 5 -110 15 -117 22 -7 7 -30 68 -52 137 -22 69 -50 150
-61 180 -12 30 -25 66 -30 80 -4 14 -19 50 -33 80 -14 30 -53 118 -87 195
-139 312 -220 450 -281 475 -44 18 -86 -5 -142 -77 -94 -122 -172 -323 -289
-737 -10 -38 -23 -76 -27 -85 -5 -9 -34 -126 -66 -261 -55 -237 -142 -582
-212 -840 -18 -69 -42 -172 -53 -230 -11 -58 -24 -118 -29 -135 -5 -16 -12
-48 -16 -70 -3 -22 -13 -62 -20 -90 -8 -27 -28 -111 -45 -185 -89 -389 -98
-405 -391 -701 -294 -297 -315 -321 -330 -388 -11 -49 18 -136 63 -191 32 -40
37 -76 9 -85 -10 -3 -29 -15 -42 -26 -38 -33 -430 -263 -549 -322 l-55 -28
-95 40 c-52 21 -146 62 -209 90 -63 28 -124 54 -135 57 -12 4 -126 54 -254
110 -128 57 -236 104 -239 104 -3 0 -45 18 -92 39 -163 74 -206 93 -271 119
-36 14 -90 38 -120 53 -52 25 -68 24 -57 -5 3 -7 43 -28 89 -46 45 -18 124
-52 175 -76 50 -24 94 -44 98 -44 4 0 21 -6 38 -14 18 -8 66 -29 107 -46 41
-18 111 -48 155 -67 44 -19 89 -38 100 -43 11 -5 49 -22 85 -38 36 -17 126
-56 200 -87 74 -32 158 -68 185 -80 28 -12 80 -35 118 -50 37 -15 67 -31 67
-34 0 -7 -42 -33 -120 -74 -30 -16 -67 -38 -82 -48 -14 -11 -29 -19 -32 -19
-8 0 -197 -108 -273 -156 -115 -73 -295 -198 -337 -234 -22 -20 -62 -51 -89
-69 -61 -42 -273 -246 -326 -314 -55 -72 -101 -165 -101 -206 0 -43 50 -137
103 -191 46 -47 151 -101 243 -125 82 -21 179 -19 250 6 32 11 68 23 79 26 11
3 58 23 105 45 47 22 108 48 135 58 28 10 84 32 125 50 41 17 107 42 145 55
39 12 126 44 195 70 155 58 221 81 285 101 28 9 66 24 85 34 39 19 169 53 270
69 36 6 85 16 110 22 25 6 77 14 115 19 39 5 97 14 130 19 93 17 98 16 91 -16
-12 -52 -28 -83 -43 -83 -23 0 -86 -36 -119 -69 -45 -45 -199 -280 -245 -374
-43 -89 -48 -126 -21 -149 28 -25 126 -29 297 -12 270 25 626 64 695 74 36 6
121 17 190 25 69 8 175 21 235 30 61 8 182 24 270 35 88 12 194 30 236 40 43
11 83 20 91 19 15 0 -89 -52 -209 -104 -45 -19 -130 -58 -190 -86 -104 -50
-144 -68 -263 -119 -48 -21 -326 -160 -532 -266 -74 -39 -84 -39 -208 -4 -91
26 -160 35 -160 21 0 -6 9 -11 21 -11 17 0 186 -34 227 -46 22 -6 -4 -39 -52
-65 l-45 -23 -83 18 c-46 10 -110 24 -143 32 -33 8 -87 19 -119 25 -32 5 -67
14 -77 19 -10 6 -33 10 -51 9 -32 0 -32 -1 12 -14 25 -8 124 -33 220 -56 96
-23 180 -46 185 -51 6 -6 -5 -23 -33 -46 -69 -60 -94 -120 -100 -233 -4 -80
-2 -101 14 -125 89 -144 397 -294 602 -294 53 0 314 43 353 58 14 6 104 31
200 57 95 26 206 58 244 71 139 49 562 183 639 204 44 12 82 23 85 25 23 14
532 93 741 115 111 12 335 39 415 51 39 5 102 14 140 19 39 4 123 15 187 24
l117 16 73 -26 c68 -25 132 -52 253 -109 28 -13 104 -46 170 -75 66 -28 134
-57 150 -65 31 -14 58 -26 260 -115 66 -29 163 -73 215 -97 52 -25 113 -52
135 -60 43 -16 325 -139 415 -180 30 -14 120 -54 200 -88 128 -56 204 -89 317
-141 17 -8 33 -14 36 -14 3 0 49 -20 101 -45 53 -25 99 -45 102 -45 3 0 53
-22 112 -49 59 -27 202 -90 317 -141 116 -50 234 -102 263 -116 29 -13 55 -24
57 -24 3 0 38 -15 78 -34 39 -19 115 -52 167 -74 52 -22 150 -65 218 -96 68
-31 125 -56 128 -56 2 0 4 8 4 18 0 13 -28 30 -107 64 -195 83 -583 255 -708
313 -38 18 -106 47 -150 66 -44 18 -85 40 -92 48 -6 9 -19 48 -29 86 -15 63
-40 139 -94 280 -10 28 -60 165 -110 305 -50 140 -96 263 -101 274 -6 10 -37
80 -69 155 -32 75 -72 168 -90 206 -18 39 -51 115 -75 170 -24 55 -68 153 -99
219 -31 65 -56 120 -56 122 0 4 -54 121 -109 239 -54 113 -184 374 -236 475
-86 164 -84 151 -75 364 4 104 4 301 0 438 -7 245 -8 249 -34 288 -14 22 -26
42 -26 44 0 7 54 23 205 61 77 19 156 41 175 49 19 8 86 29 149 46 155 43 307
97 358 127 65 38 246 251 295 347 11 23 24 43 27 46 8 6 71 108 71 115 0 3 27
49 59 103 77 127 367 679 429 818 7 16 60 131 118 257 117 257 173 390 249
592 29 77 69 182 89 233 33 84 36 101 36 191 0 70 -4 101 -12 104 -10 4 -10 6
0 6 18 1 17 627 -1 635 -9 3 -9 5 1 5 14 1 17 61 2 61 -19 0 -157 -61 -390
-173 -36 -17 -126 -67 -200 -110 -74 -44 -151 -89 -170 -100 -86 -48 -327
-206 -450 -295 -63 -45 -161 -115 -218 -155 -209 -146 -507 -375 -645 -495
-59 -52 -110 -92 -114 -89 -3 3 4 52 15 109 36 177 44 267 44 478 -1 206 -4
237 -56 595 -26 181 -39 349 -57 773 -8 171 -8 267 -2 273 6 6 20 6 39 -2 16
-6 61 -20 99 -30 39 -11 79 -23 90 -28 102 -44 266 -94 295 -89 l25 3 -3 203
-3 202 28 11 c20 8 40 8 71 0 23 -6 49 -11 57 -11 21 0 19 30 -2 31 -60 3
-104 10 -127 19 -28 10 -30 22 -18 115 6 45 9 50 35 52 23 2 27 -1 22 -17 -7
-22 2 -25 105 -40 76 -11 225 -52 270 -75 14 -7 52 -25 85 -40 33 -15 110 -52
170 -83 61 -30 146 -70 190 -89 44 -19 88 -41 97 -50 9 -8 22 -12 29 -8 8 6 3
12 -15 22 -14 7 -26 17 -26 22 0 4 -24 18 -52 31 -82 35 -182 84 -188 91 -10
12 -127 69 -235 114 -60 25 -128 54 -150 65 -22 10 -68 24 -103 31 -34 6 -65
16 -68 20 -9 16 64 9 118 -10 63 -23 138 -36 138 -24 0 11 -58 36 -135 58 -33
9 -70 21 -83 26 -30 12 -69 11 -77 -1 -4 -6 -16 -5 -33 1 -15 6 -41 8 -58 5
l-30 -6 -2 76 c-2 42 0 85 3 95 7 22 25 25 25 5 0 -16 38 -31 120 -45 85 -16
172 -37 242 -59 34 -11 146 -41 248 -67 102 -25 212 -54 245 -64 33 -10 89
-26 125 -36 36 -10 92 -26 125 -35 33 -10 114 -33 180 -50 66 -17 128 -36 137
-41 10 -5 25 -9 34 -9 26 0 183 -50 189 -61 8 -12 25 -2 25 16 0 8 -12 17 -27
21 -16 3 -68 17 -118 30 -49 13 -126 33 -170 45 -126 32 -188 50 -210 59 -11
4 -74 22 -140 40 -66 18 -167 46 -225 62 -186 52 -214 60 -245 65 -16 3 -34 9
-40 13 -5 4 -26 11 -45 15 -19 4 -87 22 -150 41 -63 19 -140 41 -171 49 -31 9
-64 22 -75 29 -17 13 -14 16 41 31 55 16 63 17 110 2 46 -15 205 -47 233 -47
7 0 12 8 12 19 0 20 -31 35 -92 46 -21 3 -38 11 -38 16 0 7 13 8 33 4 82 -16
189 -42 402 -96 302 -76 342 -87 390 -103 22 -7 63 -19 90 -26 47 -12 82 -21
315 -84 52 -14 101 -26 108 -26 9 0 12 26 12 95 0 67 -4 95 -12 95 -9 0 -9 3
0 12 16 16 15 46 -2 63 -12 12 -16 11 -30 -8 l-15 -22 -21 26 c-19 25 -24 26
-83 22 -38 -3 -72 -1 -85 6 -11 6 -58 13 -103 16 -90 5 -98 9 -137 76 l-22 36
45 -1 c25 -1 45 -4 45 -8 0 -4 17 -10 38 -13 20 -4 55 -13 77 -21 23 -8 50
-14 61 -14 11 0 28 -10 38 -21 14 -17 20 -19 26 -8 7 10 14 11 32 2 13 -6 41
-14 63 -17 22 -3 50 -8 63 -12 16 -5 22 -2 22 10 0 9 -12 18 -27 22 -16 4 -77
19 -138 35 -345 88 -511 132 -600 159 -64 20 -112 29 -133 26 -31 -5 -33 -3
-31 22 1 15 1 44 1 65 -2 34 -4 37 -31 37 -20 0 -35 -8 -49 -27 -11 -15 -24
-23 -30 -19 -18 11 -14 22 11 34 20 9 17 11 -20 11 l-43 1 0 -40 c0 -29 4 -40
15 -40 9 0 15 -9 15 -25 0 -23 -4 -25 -40 -25 -35 0 -42 4 -51 27 -5 14 -7 34
-3 42 6 14 8 14 11 -1 3 -10 11 -18 19 -18 10 0 14 12 14 40 l0 40 -130 0
-130 0 0 -40 c0 -22 -4 -40 -10 -40 -5 0 -10 18 -10 40 l0 41 -82 -3 -83 -3 2
-115 c1 -63 4 -131 7 -150 3 -22 0 -42 -10 -55 -14 -19 -14 -19 -34 1 -18 18
-20 28 -14 92 4 40 11 72 15 72 12 0 11 97 -1 105 -5 3 -10 17 -10 31 0 24 0
24 -110 24 l-110 0 0 -611z m450 388 c0 -56 -1 -58 -32 -72 -18 -7 -35 -12
-38 -10 -3 2 -3 31 -2 65 3 48 7 60 18 56 8 -3 14 -1 14 5 0 5 6 16 13 23 18
21 27 0 27 -67z m600 23 c0 -12 -8 -12 -35 0 -18 8 -17 9 8 9 15 1 27 -3 27
-9z m40 -32 c0 -4 21 -8 48 -8 34 0 43 3 32 10 -12 8 -10 10 8 10 31 0 62 -17
62 -35 0 -11 -12 -15 -40 -15 -22 0 -40 5 -40 10 0 6 -12 10 -27 10 -48 0
-103 12 -97 21 6 11 54 8 54 -3z m57 6 c-3 -3 -12 -4 -19 -1 -8 3 -5 6 6 6 11
1 17 -2 13 -5z m-1027 -74 c0 -16 7 -20 30 -20 20 0 30 -5 30 -15 0 -8 -9 -15
-19 -15 -11 0 -22 -4 -25 -9 -9 -14 -61 4 -64 22 -2 10 3 17 12 17 9 0 15 3
15 8 -3 18 2 32 11 32 6 0 10 -9 10 -20z m-671 -592 c-9 -16 -29 -25 -29 -14
0 2 -3 11 -6 19 -4 11 1 15 19 13 21 -1 23 -4 16 -18z m-79 -27 c0 -17 -12
-41 -21 -41 -4 0 -20 -11 -35 -25 -28 -26 -44 -32 -44 -15 0 6 5 10 10 10 13
0 45 32 60 59 11 21 30 29 30 12z m30 -21 c0 -11 -7 -20 -15 -20 -13 0 -13 3
-3 20 7 11 14 20 15 20 2 0 3 -9 3 -20z m80 -10 c0 -5 -5 -10 -11 -10 -5 0 -7
5 -4 10 3 6 8 10 11 10 2 0 4 -4 4 -10z m17 -82 c-3 -7 -5 -2 -5 12 0 14 2 19
5 13 2 -7 2 -19 0 -25z m-177 10 c0 -5 -13 -11 -30 -14 -16 -4 -30 -11 -30
-15 0 -5 -11 -14 -25 -19 -14 -5 -26 -15 -26 -22 -1 -7 -2 -26 -3 -43 -2 -22
-7 -29 -19 -27 -9 2 -17 -3 -17 -10 0 -9 -3 -9 -10 2 -5 8 -12 11 -17 7 -4 -4
-2 -16 4 -25 8 -14 6 -23 -8 -41 -22 -27 -39 -20 -35 16 3 23 28 57 104 139
12 14 22 29 22 34 0 5 6 13 14 17 20 11 76 12 76 1z m189 -80 c1 -10 -3 -18
-9 -18 -5 0 -10 17 -9 38 0 30 2 33 9 17 5 -11 9 -28 9 -37z m-269 2 c0 -5 -5
-10 -11 -10 -5 0 -7 5 -4 10 3 6 8 10 11 10 2 0 4 -4 4 -10z m270 -50 c0 -5
-4 -10 -10 -10 -5 0 -10 5 -10 10 0 6 5 10 10 10 6 0 10 -4 10 -10z m-454
-155 c-14 -13 -26 -31 -26 -40 0 -8 -4 -15 -9 -15 -5 0 -11 -15 -15 -32 -5
-24 -9 -29 -15 -19 -13 20 -29 5 -53 -50 -14 -31 -27 -48 -37 -47 -11 2 -16
-7 -17 -30 -2 -46 -21 -63 -40 -38 -19 26 -18 34 4 32 10 0 17 6 17 15 0 21
26 69 37 69 4 0 8 7 8 16 0 8 4 13 9 9 5 -3 12 3 15 13 3 9 18 31 33 48 35 39
73 91 73 100 0 4 8 13 18 20 30 22 28 -23 -2 -51z m104 35 c0 -5 -5 -10 -11
-10 -5 0 -7 5 -4 10 3 6 8 10 11 10 2 0 4 -4 4 -10z m338 -56 l-3 -39 -5 47
c-3 26 -1 43 3 39 5 -5 7 -26 5 -47z m-428 -13 c0 -6 -4 -13 -10 -16 -5 -3
-10 1 -10 9 0 9 5 16 10 16 6 0 10 -4 10 -9z m454 -141 c1 -22 -1 -40 -5 -40
-8 0 -17 62 -11 80 7 20 14 2 16 -40z m-31 20 c-3 -11 -7 -20 -9 -20 -2 0 -4
9 -4 20 0 11 4 20 9 20 5 0 7 -9 4 -20z m-658 -120 c3 -6 0 -13 -9 -16 -8 -3
-12 -12 -9 -20 6 -16 -41 -94 -57 -94 -6 0 -10 -5 -10 -11 0 -7 -8 -18 -17
-26 -16 -13 -16 -13 7 -7 l25 6 -24 -21 c-13 -11 -20 -21 -15 -21 5 0 1 -5 -8
-11 -10 -5 -18 -17 -18 -24 0 -8 -3 -15 -7 -15 -10 0 -33 -49 -33 -69 0 -14
-1 -14 -10 -1 -7 12 -10 12 -10 1 0 -21 -48 -73 -53 -58 -7 17 -27 -11 -27
-39 0 -12 -7 -27 -16 -35 -13 -11 -14 -9 -8 17 11 47 33 84 50 84 9 0 14 6 12
12 -4 12 1 21 32 56 8 10 24 37 35 62 11 25 32 59 47 75 16 17 34 42 41 58 6
15 15 27 18 27 3 0 14 18 24 40 18 40 29 48 40 30z m664 -142 c1 -46 21 -51
21 -5 0 24 3 28 10 17 5 -8 9 -42 9 -75 l-1 -60 -12 40 c-11 38 -12 39 -19 15
-4 -14 -7 -49 -7 -77 0 -29 -3 -53 -7 -53 -5 0 -8 61 -8 135 0 74 3 126 7 117
4 -9 7 -34 7 -54z m-659 52 c0 -5 -7 -10 -16 -10 -8 0 -12 5 -9 10 3 6 10 10
16 10 5 0 9 -4 9 -10z m697 -237 c-3 -10 -5 -2 -5 17 0 19 2 27 5 18 2 -10 2
-26 0 -35z m-50 -155 c-2 -13 -4 -3 -4 22 0 25 2 35 4 23 2 -13 2 -33 0 -45z
m2293 47 c0 -8 -3 -16 -7 -16 -5 -1 -20 -3 -35 -4 -15 -2 -36 -9 -47 -15 -12
-6 -21 -7 -21 -2 0 8 16 17 70 40 35 15 40 14 40 -3z m-3279 -86 c-18 -17 -27
-42 -19 -51 1 -2 -7 -18 -17 -35 -12 -21 -22 -28 -26 -21 -9 15 5 50 44 111
23 35 33 45 35 32 2 -9 -6 -26 -17 -36z m3149 41 c0 -15 -77 -63 -89 -56 -25
16 33 54 72 47 4 0 7 4 7 9 0 6 2 10 5 10 3 0 5 -4 5 -10z m150 0 c0 -5 -4
-10 -9 -10 -5 0 -23 -3 -40 -6 -19 -4 -31 -2 -31 4 0 10 23 18 63 21 9 0 17
-3 17 -9z m-113 -16 c-3 -3 -12 -4 -19 -1 -8 3 -5 6 6 6 11 1 17 -2 13 -5z
m-2130 -41 c-3 -10 -5 -4 -5 12 0 17 2 24 5 18 2 -7 2 -21 0 -30z m-1046 -36
c-16 -16 -26 0 -10 19 9 11 15 12 17 4 2 -6 -1 -17 -7 -23z m3009 22 c-20 -8
-22 -12 -10 -19 12 -8 10 -10 -7 -10 -13 0 -23 -4 -23 -9 0 -16 -42 -24 -51
-10 -10 18 -2 29 22 29 10 0 19 4 19 9 0 10 23 18 55 19 16 1 16 -1 -5 -9z
m187 -44 c0 -8 -6 -15 -14 -15 -17 0 -17 17 0 23 6 3 12 6 13 6 0 1 1 -6 1
-14z m-284 -51 c-7 -20 -21 -17 -28 6 -3 11 -10 20 -15 20 -13 0 -70 -34 -70
-42 0 -3 -16 -16 -35 -28 -41 -26 -44 -37 -10 -43 23 -4 23 -4 -2 -3 -20 1
-28 6 -27 19 2 17 0 17 -23 2 -14 -9 -28 -14 -31 -10 -11 11 30 35 60 35 15 0
28 4 28 10 0 12 79 66 105 72 25 6 56 -19 48 -38z m-2993 17 c0 -5 -7 -14 -15
-21 -16 -14 -18 -10 -9 14 6 17 24 22 24 7z m3050 -21 c0 -5 -5 -10 -11 -10
-5 0 -7 5 -4 10 3 6 8 10 11 10 2 0 4 -4 4 -10z m-1903 -72 c-2 -13 -4 -5 -4
17 -1 22 1 32 4 23 2 -10 2 -28 0 -40z m-1159 30 c16 -16 15 -29 -1 -22 -8 3
-20 -11 -30 -35 -11 -25 -23 -38 -31 -35 -8 3 -16 -4 -19 -15 -3 -12 -1 -21 4
-21 5 0 9 5 9 12 0 6 2 9 5 7 10 -11 -8 -47 -21 -42 -9 3 -14 -2 -14 -16 0
-12 6 -21 15 -21 18 0 20 -16 3 -24 -10 -3 -8 -9 5 -19 17 -15 24 -47 9 -47
-5 0 -21 24 -36 53 -18 37 -24 60 -19 74 10 27 96 162 104 163 3 0 10 -5 17
-12z m882 -2 c0 -2 -7 -9 -15 -16 -12 -10 -15 -10 -15 4 0 9 7 16 15 16 8 0
15 -2 15 -4z m2020 -16 c0 -5 -5 -10 -11 -10 -5 0 -7 5 -4 10 3 6 8 10 11 10
2 0 4 -4 4 -10z m-153 -44 c-6 -7 -20 -15 -29 -19 -10 -3 -18 -13 -18 -22 0
-18 -5 -18 -30 -5 -14 7 -25 3 -51 -23 -19 -18 -41 -43 -49 -55 -8 -13 -21
-20 -29 -17 -7 3 -22 3 -33 -1 -16 -5 -18 -11 -12 -37 6 -28 5 -30 -10 -18
-10 8 -26 11 -43 7 -49 -11 -83 -28 -77 -37 3 -5 -2 -9 -10 -9 -9 0 -16 -4
-16 -8 0 -5 -16 -17 -35 -28 -19 -10 -38 -27 -41 -36 -7 -22 -44 -24 -44 -2 0
10 6 13 19 9 13 -4 20 0 24 14 2 11 19 27 37 36 18 10 43 26 54 37 12 11 38
27 59 36 20 9 37 20 37 24 0 4 16 14 35 22 19 8 35 20 35 26 0 8 11 9 33 5 22
-4 28 -3 18 3 -14 10 -5 18 128 99 36 22 71 22 48 -1z m-1807 -2 c0 -8 -4 -12
-10 -9 -5 3 -10 10 -10 16 0 5 5 9 10 9 6 0 10 -7 10 -16z m240 -11 c0 -31
-15 -61 -25 -51 -6 6 15 78 22 78 2 0 3 -12 3 -27z m-353 -15 c-3 -7 -5 -2 -5
12 0 14 2 19 5 13 2 -7 2 -19 0 -25z m33 -38 c0 -27 -4 -50 -9 -50 -5 0 -8 23
-8 50 0 28 4 50 9 50 4 0 8 -22 8 -50z m86 -117 c0 -81 4 -118 12 -121 7 -2
12 -21 11 -45 -1 -23 -3 -33 -6 -22 -10 45 -15 51 -23 30 -5 -12 -9 40 -9 128
-1 81 3 147 7 147 5 0 8 -53 8 -117z m-119 75 c-3 -8 -6 -5 -6 6 -1 11 2 17 5
13 3 -3 4 -12 1 -19z m330 -30 c-3 -7 -5 -2 -5 12 0 14 2 19 5 13 2 -7 2 -19
0 -25z m30 0 c-3 -7 -5 -2 -5 12 0 14 2 19 5 13 2 -7 2 -19 0 -25z m-220 -70
c-2 -13 -4 -3 -4 22 0 25 2 35 4 23 2 -13 2 -33 0 -45z m-120 -5 c-3 -10 -5
-4 -5 12 0 17 2 24 5 18 2 -7 2 -21 0 -30z m353 7 c0 -11 -4 -20 -10 -20 -5 0
-10 9 -10 20 0 11 5 20 10 20 6 0 10 -9 10 -20z m1220 -10 c0 -5 -7 -10 -16
-10 -8 0 -12 5 -9 10 3 6 10 10 16 10 5 0 9 -4 9 -10z m-2455 -35 c14 -14 25
-32 25 -40 0 -7 6 -15 13 -18 6 -2 4 -3 -5 -2 -24 4 -23 -8 2 -30 23 -21 26
-35 7 -35 -8 0 -22 19 -32 43 -9 23 -23 54 -31 69 -24 46 -17 50 21 13z m2361
-40 c-8 -8 -20 -15 -27 -15 -7 0 -4 6 7 15 25 19 40 19 20 0z m-1466 -72 c0
-32 -4 -53 -8 -46 -7 11 -4 103 4 103 2 0 4 -26 4 -57z m1345 17 c-3 -5 -12
-10 -18 -10 -19 0 -62 -42 -81 -77 -17 -34 -31 -42 -38 -21 -5 14 -48 -20 -48
-38 0 -7 -18 -15 -40 -19 -24 -4 -40 -12 -40 -21 0 -16 -29 -32 -52 -29 -19 3
-52 -40 -43 -55 3 -6 -3 -10 -13 -10 -11 0 -25 -7 -32 -15 -7 -9 -15 -13 -17
-11 -3 3 -18 -9 -34 -25 -15 -16 -33 -29 -39 -29 -5 0 -10 -7 -10 -15 0 -8 -7
-15 -15 -15 -8 0 -19 -9 -25 -20 -14 -26 -27 -26 -25 1 1 12 11 27 24 33 12 7
18 15 15 19 -4 4 -3 7 3 7 6 0 32 17 59 39 27 21 55 36 63 33 8 -2 11 0 7 6
-10 16 127 122 158 122 7 0 21 9 31 20 10 11 22 17 26 14 5 -3 9 1 9 9 0 12
47 49 83 65 5 2 19 15 32 28 23 23 73 35 60 14z m-1373 -18 c3 -9 1 -26 -3
-37 -6 -15 -8 -11 -8 18 -1 40 4 48 11 19z m1453 -12 c3 -5 1 -10 -4 -10 -6 0
-11 5 -11 10 0 6 2 10 4 10 3 0 8 -4 11 -10z m-1058 -47 c-3 -10 -5 -2 -5 17
0 19 2 27 5 18 2 -10 2 -26 0 -35z m990 41 c-3 -3 -12 -4 -19 -1 -8 3 -5 6 6
6 11 1 17 -2 13 -5z m-1271 -114 c3 -36 7 -80 9 -97 4 -37 -11 -46 -18 -10 -2
12 -3 7 -1 -12 4 -47 -6 -89 -23 -96 -13 -4 -15 7 -9 82 18 244 18 249 28 223
5 -14 11 -54 14 -90z m2361 88 c-3 -8 -6 -5 -6 6 -1 11 2 17 5 13 3 -3 4 -12
1 -19z m57 0 c-5 -13 -9 -36 -10 -53 -2 -49 -4 -55 -14 -55 -6 0 -6 9 0 24 5
13 6 26 3 30 -9 9 7 76 18 76 6 0 7 -9 3 -22z m-3321 -44 c-4 -10 4 -14 28
-15 24 -1 27 -3 12 -6 -27 -5 -29 -16 -8 -33 13 -11 13 -15 3 -21 -10 -7 -10
-11 0 -21 6 -6 12 -21 12 -32 0 -17 -4 -15 -20 11 -11 18 -23 45 -26 60 -4 16
-10 33 -14 38 -8 10 -14 41 -11 60 1 6 8 2 16 -8 7 -11 11 -25 8 -33z m925 10
c4 2 7 -37 8 -87 1 -76 0 -83 -7 -42 -11 81 -18 151 -12 137 2 -6 8 -10 11 -8z
m-127 -154 c-1 -39 -5 -80 -10 -92 -4 -11 -6 22 -5 74 1 104 1 104 11 95 3 -4
5 -39 4 -77z m345 -30 c17 0 17 -5 2 -33 -12 -22 -12 -21 -19 8 -4 17 -6 46
-6 65 l0 35 4 -37 c3 -25 9 -38 19 -38z m2130 23 c-18 -33 -21 -26 -6 13 6 15
13 24 16 21 3 -3 -1 -18 -10 -34z m-1296 -8 c0 -18 -20 -20 -21 -2 0 10 -2 10
-6 0 -2 -7 -9 -13 -15 -13 -6 0 -6 6 2 15 7 8 19 15 26 15 8 0 14 -7 14 -15z
m-1901 -35 c5 0 14 -13 20 -30 5 -16 16 -30 22 -30 10 0 10 -3 1 -12 -17 -17
-15 -41 3 -34 17 6 20 -20 5 -44 -9 -13 -11 -13 -20 0 -5 8 -13 31 -16 50 -4
19 -15 51 -25 70 -11 19 -19 44 -18 55 0 18 1 18 9 -2 5 -13 14 -23 19 -23z
m38 -2 c-3 -8 -6 -5 -6 6 -1 11 2 17 5 13 3 -3 4 -12 1 -19z m2893 -4 c0 -14
-4 -23 -10 -19 -5 3 -10 15 -10 26 0 10 5 19 10 19 6 0 10 -12 10 -26z m200
14 c0 -7 -5 -20 -10 -28 -8 -12 -10 -9 -10 13 0 15 5 27 10 27 6 0 10 -6 10
-12z m40 -13 c0 -8 -4 -15 -10 -15 -5 0 -7 7 -4 15 4 8 8 15 10 15 2 0 4 -7 4
-15z m-383 -27 c-3 -7 -5 -2 -5 12 0 14 2 19 5 13 2 -7 2 -19 0 -25z m24 -28
c-7 -3 -9 -14 -5 -23 3 -10 1 -17 -5 -17 -15 0 -14 23 1 56 11 23 14 24 16 10
2 -10 -1 -22 -7 -26z m89 -31 c0 -33 -5 -49 -15 -53 -8 -3 -15 -13 -15 -21 0
-9 -4 -13 -10 -10 -5 3 -10 -1 -10 -9 0 -9 -4 -16 -10 -16 -13 0 -13 3 2 35 6
14 15 25 20 25 4 0 8 13 8 29 0 16 3 43 6 61 9 44 24 19 24 -41z m-1240 51 c0
-5 -4 -10 -10 -10 -5 0 -10 5 -10 10 0 6 5 10 10 10 6 0 10 -4 10 -10z m80
-10 c0 -5 -5 -10 -11 -10 -5 0 -7 5 -4 10 3 6 8 10 11 10 2 0 4 -4 4 -10z
m1385 -9 c-3 -11 -1 -22 4 -25 6 -4 7 -14 4 -22 -5 -13 -9 -10 -18 12 -8 19
-9 33 -2 42 14 18 19 15 12 -7z m-2589 -28 c-10 -10 -19 5 -10 18 6 11 8 11
12 0 2 -7 1 -15 -2 -18z m102 -3 c1 -16 -2 -30 -8 -30 -11 0 -14 43 -3 53 9
10 8 10 11 -23z m1448 10 c21 0 17 -18 -8 -31 -20 -11 -22 -11 -10 3 9 11 10
18 2 23 -5 3 -10 12 -9 18 0 9 2 9 6 0 2 -7 11 -13 19 -13z m-1308 -105 c0
-52 -4 -95 -7 -95 -3 0 -6 -37 -6 -81 1 -54 -4 -86 -12 -95 -15 -15 -18 -88
-3 -79 11 7 13 -6 4 -29 -3 -9 -10 -14 -14 -11 -10 6 -22 -40 -23 -85 0 -19
-4 -40 -9 -46 -4 -6 -5 -20 -1 -29 4 -13 3 -16 -6 -11 -14 9 -4 177 11 187 5
3 8 10 7 15 -5 15 12 126 23 153 6 14 12 55 14 91 1 36 5 79 7 95 2 17 4 49 5
73 4 81 11 41 10 -53z m-298 81 c0 -3 -4 -8 -10 -11 -5 -3 -10 -1 -10 4 0 6 5
11 10 11 6 0 10 -2 10 -4z m587 -43 c-3 -10 -5 -2 -5 17 0 19 2 27 5 18 2 -10
2 -26 0 -35z m429 22 c1 -15 -3 -25 -12 -25 -8 0 -14 -4 -14 -9 0 -5 -9 -7
-20 -4 -18 5 -20 2 -16 -21 6 -32 -6 -40 -26 -17 -13 16 -13 20 3 39 9 12 23
22 31 22 7 0 21 9 31 20 21 25 22 25 23 -5z m-966 5 c0 -5 -4 -10 -10 -10 -5
0 -10 5 -10 10 0 6 5 10 10 10 6 0 10 -4 10 -10z m2250 -27 c-11 -17 -11 -17
-6 0 3 10 6 24 7 30 0 9 2 9 5 0 3 -7 0 -20 -6 -30z m-2370 -9 c0 -8 -4 -12
-10 -9 -5 3 -10 10 -10 16 0 5 5 9 10 9 6 0 10 -7 10 -16z m16 -30 c-8 -21
-15 -31 -15 -22 -1 18 20 70 26 65 2 -2 -3 -21 -11 -43z m624 36 c0 -5 -4 -10
-10 -10 -5 0 -11 -15 -11 -32 -1 -19 -3 -25 -6 -15 -6 24 5 67 17 67 6 0 10
-4 10 -10z m1687 4 c-3 -3 -12 -4 -19 -1 -8 3 -5 6 6 6 11 1 17 -2 13 -5z
m-2186 -28 c-7 -8 -8 -16 -4 -18 4 -3 2 -3 -5 -1 -8 1 -20 3 -28 3 -20 0 -17
18 4 23 36 10 45 8 33 -7z m69 -11 c0 -23 -2 -25 -22 -14 -33 17 -36 21 -13
17 12 -2 19 2 18 10 -2 6 2 12 7 12 6 0 10 -11 10 -25z m1495 10 c-11 -8 -26
-20 -34 -27 -8 -7 -23 -14 -34 -15 -16 -3 -17 -1 -3 12 8 8 19 15 24 15 5 0
15 7 22 15 7 8 20 15 29 15 13 -1 12 -3 -4 -15z m992 -17 c-3 -7 -5 -2 -5 12
0 14 2 19 5 13 2 -7 2 -19 0 -25z m-3035 -17 c1 -17 4 -31 9 -31 10 0 29 -57
21 -65 -4 -3 2 -3 12 1 13 5 16 13 12 30 -4 14 -2 24 4 24 14 0 12 -43 -3 -64
-14 -19 -11 -70 3 -61 12 7 23 -13 25 -44 7 -83 39 -186 54 -177 16 10 21 -38
6 -53 -8 -8 -16 -13 -18 -10 -10 12 -47 139 -47 160 0 14 -4 29 -9 35 -12 13
-48 114 -54 153 -3 19 -10 37 -15 40 -12 8 -23 67 -15 86 8 22 14 12 15 -24z
m985 -13 c-2 -13 -4 -5 -4 17 -1 22 1 32 4 23 2 -10 2 -28 0 -40z m899 30 c-9
-5 -16 -16 -16 -23 0 -17 -16 -20 -25 -5 -8 13 33 52 47 44 7 -4 5 -10 -6 -16z
m804 5 c0 -5 -4 -15 -10 -23 -11 -18 -25 -7 -17 15 6 15 27 21 27 8z m-1390
-23 c-8 -6 -11 -10 -7 -10 12 0 -20 -30 -32 -30 -13 0 -32 -35 -24 -44 3 -3
-4 -6 -16 -6 -21 0 -21 1 -6 30 9 17 20 30 25 30 5 0 21 11 36 25 15 14 30 23
33 20 3 -4 -1 -10 -9 -15z m-983 -12 c-3 -8 -6 -5 -6 6 -1 11 2 17 5 13 3 -3
4 -12 1 -19z m113 -18 c0 -23 -32 -58 -38 -41 -2 7 4 21 13 31 9 10 14 24 9
31 -4 8 -3 10 4 5 7 -4 12 -16 12 -26z m-380 10 c0 -5 -4 -10 -10 -10 -5 0
-10 5 -10 10 0 6 5 10 10 10 6 0 10 -4 10 -10z m551 -94 c12 -13 12 -53 0 -60
-5 -3 -12 18 -16 46 -4 29 -11 64 -16 76 -5 13 -6 29 -2 35 4 7 11 -10 16 -38
4 -27 12 -54 18 -59z m6 82 c-3 -8 -6 -5 -6 6 -1 11 2 17 5 13 3 -3 4 -12 1
-19z m1166 15 c-14 -5 -18 -43 -5 -43 4 0 16 7 26 15 11 8 25 15 30 15 16 -1
-34 -40 -49 -40 -8 0 -16 -8 -18 -17 -3 -10 -5 3 -6 30 -1 39 2 47 17 46 10 0
12 -3 5 -6z m1197 -15 c0 -19 -2 -20 -10 -8 -13 19 -13 30 0 30 6 0 10 -10 10
-22z m-2486 -33 c7 -29 7 -29 -8 -10 -8 11 -16 29 -16 40 0 27 16 7 24 -30z
m1476 37 c0 -5 -13 -21 -30 -37 -16 -16 -30 -36 -30 -46 0 -19 -62 -47 -68
-30 -4 13 -34 -18 -49 -52 -8 -18 -19 -27 -30 -25 -12 2 -18 -3 -17 -13 1 -11
-5 -15 -17 -12 -11 3 -19 7 -19 9 0 11 110 107 133 116 15 5 27 16 27 23 0 8
19 27 43 43 44 32 57 37 57 24z m30 -2 c0 -5 -2 -10 -4 -10 -3 0 -8 5 -11 10
-3 6 -1 10 4 10 6 0 11 -4 11 -10z m666 -25 c-9 -7 -16 -19 -16 -27 0 -9 -9
-26 -20 -39 -15 -19 -19 -21 -20 -7 0 9 6 23 14 30 7 8 17 25 21 38 9 29 28
45 34 28 2 -6 -4 -17 -13 -23z m96 -12 c-5 -10 -7 -24 -5 -31 6 -16 -38 -67
-60 -68 -19 -2 -19 -2 -11 20 3 9 12 16 20 16 8 0 14 9 14 20 0 11 5 20 10 20
6 0 10 9 10 19 0 11 3 27 6 36 6 16 8 16 16 1 5 -9 5 -23 0 -33z m254 21 c-4
-9 -9 -15 -11 -12 -3 3 -3 13 1 22 4 9 9 15 11 12 3 -3 3 -13 -1 -22z m-2694
-50 c-6 -11 -11 -13 -16 -5 -4 6 -2 11 3 11 6 0 12 10 12 23 1 16 3 17 6 5 2
-10 0 -25 -5 -34z m658 21 c0 -8 -4 -15 -10 -15 -5 0 -7 7 -4 15 4 8 8 15 10
15 2 0 4 -7 4 -15z m217 -36 c-1 -23 -3 -36 -5 -31 -4 14 -32 4 -54 -19 -9 -9
-23 -19 -30 -21 -10 -4 -10 -8 1 -22 12 -15 12 -19 -2 -34 -16 -15 -18 -15
-30 2 -8 11 -19 16 -25 12 -21 -12 -13 2 16 31 15 15 33 26 39 25 8 -2 10 3 7
13 -4 9 -1 15 7 15 8 0 28 16 44 34 17 19 31 35 32 35 1 1 1 -17 0 -40z m788
31 c-3 -5 -10 -10 -16 -10 -5 0 -9 5 -9 10 0 6 7 10 16 10 8 0 12 -4 9 -10z
m-1591 -37 c-8 -35 -24 -54 -24 -29 0 18 17 56 26 56 2 0 1 -12 -2 -27z m-101
2 c4 -8 2 -17 -3 -20 -6 -4 -10 3 -10 14 0 25 6 27 13 6z m246 -33 c1 -7 -3
-10 -9 -7 -5 3 -10 18 -9 33 0 24 1 25 9 7 5 -11 9 -26 9 -33z m1200 31 c-57
-69 -68 -77 -91 -65 -23 12 -23 12 3 7 22 -4 28 0 33 18 3 12 18 29 33 39 36
21 38 21 22 1z m1242 -38 c-9 -30 -9 -30 -10 10 -1 25 2 36 9 29 6 -6 6 -21 1
-39z m-2711 4 c0 -6 -8 -18 -17 -27 -16 -16 -16 -16 -10 1 4 10 7 23 7 28 0 5
5 9 10 9 6 0 10 -5 10 -11z m2340 -9 c0 -5 -5 -10 -11 -10 -5 0 -7 5 -4 10 3
6 8 10 11 10 2 0 4 -4 4 -10z m-2213 -37 c-3 -10 -5 -4 -5 12 0 17 2 24 5 18
2 -7 2 -21 0 -30z m-32 -36 c-6 -31 -11 -48 -36 -134 -7 -23 -15 -40 -19 -38
-3 2 -6 -4 -6 -13 0 -48 -5 -72 -14 -72 -14 0 -5 102 11 131 6 12 13 40 16 63
2 22 8 43 13 46 4 3 11 23 15 44 6 31 10 35 17 22 5 -9 6 -31 3 -49z m2223 32
c-3 -8 -7 -3 -11 10 -4 17 -3 21 5 13 5 -5 8 -16 6 -23z m-1653 11 c3 -6 -1
-7 -10 -4 -8 4 -22 1 -30 -6 -12 -10 -15 -9 -15 4 0 18 45 23 55 6z m1778 -25
c-7 -21 -13 -19 -13 6 0 11 4 18 10 14 5 -3 7 -12 3 -20z m226 -1 c-14 -18
-24 -11 -15 11 3 9 11 13 16 10 8 -5 7 -11 -1 -21z m-289 -55 c-32 -43 -36
-28 -9 27 19 38 25 43 27 26 2 -12 -6 -36 -18 -53z m-1710 53 c0 -13 -12 -22
-22 -16 -10 6 -1 24 13 24 5 0 9 -4 9 -8z m700 -2 c0 -5 -4 -10 -10 -10 -5 0
-10 5 -10 10 0 6 5 10 10 10 6 0 10 -4 10 -10z m927 -22 c-3 -8 -6 -5 -6 6 -1
11 2 17 5 13 3 -3 4 -12 1 -19z m-1529 -23 c2 -9 0 -15 -5 -12 -5 3 -15 2 -23
-3 -11 -7 -11 -11 -1 -24 12 -14 9 -16 -23 -16 -44 0 -47 18 -6 45 16 11 30
24 30 28 0 16 25 0 28 -18z m539 -19 c-21 -19 -37 -40 -37 -46 0 -6 -5 -8 -10
-5 -14 8 28 66 52 73 10 2 18 9 18 15 0 6 3 7 7 4 3 -4 -10 -22 -30 -41z
m-1450 12 c-3 -8 -6 -5 -6 6 -1 11 2 17 5 13 3 -3 4 -12 1 -19z m30 -10 c-3
-7 -5 -2 -5 12 0 14 2 19 5 13 2 -7 2 -19 0 -25z m100 0 c-3 -7 -5 -2 -5 12 0
14 2 19 5 13 2 -7 2 -19 0 -25z m253 18 c0 -8 -4 -18 -10 -21 -5 -3 -10 3 -10
14 0 12 5 21 10 21 6 0 10 -6 10 -14z m207 -8 c-3 -8 -6 -5 -6 6 -1 11 2 17 5
13 3 -3 4 -12 1 -19z m163 12 c0 -5 -4 -10 -9 -10 -6 0 -13 5 -16 10 -3 6 1
10 9 10 9 0 16 -4 16 -10z m845 0 c-3 -5 -15 -15 -26 -20 -16 -9 -19 -7 -19
10 0 15 7 20 26 20 14 0 22 -4 19 -10z m1115 0 c0 -5 -2 -10 -4 -10 -3 0 -8 5
-11 10 -3 6 -1 10 4 10 6 0 11 -4 11 -10z m47 -12 c-3 -8 -6 -5 -6 6 -1 11 2
17 5 13 3 -3 4 -12 1 -19z m34 -21 c-8 -8 -11 -7 -11 4 0 9 3 19 7 23 4 4 9 2
11 -4 3 -7 -1 -17 -7 -23z m-1251 13 c0 -5 -5 -10 -11 -10 -5 0 -7 5 -4 10 3
6 8 10 11 10 2 0 4 -4 4 -10z m880 1 c0 -12 -20 -25 -27 -18 -7 7 6 27 18 27
5 0 9 -4 9 -9z m-1700 -21 c0 -5 -4 -10 -10 -10 -5 0 -10 5 -10 10 0 6 5 10
10 10 6 0 10 -4 10 -10z m-603 -32 c-3 -7 -5 -2 -5 12 0 14 2 19 5 13 2 -7 2
-19 0 -25z m290 10 c-3 -8 -6 -5 -6 6 -1 11 2 17 5 13 3 -3 4 -12 1 -19z
m-387 -19 c0 -11 -4 -17 -10 -14 -5 3 -10 15 -10 26 0 11 5 17 10 14 6 -3 10
-15 10 -26z m1500 21 c0 -5 -5 -10 -11 -10 -5 0 -7 5 -4 10 3 6 8 10 11 10 2
0 4 -4 4 -10z m847 -25 c1 -19 -3 -35 -8 -35 -5 0 -9 16 -9 35 0 46 14 46 17
0z m-1566 3 c-5 -13 -18 -24 -32 -26 l-24 -4 24 26 c30 32 43 33 32 4z m584 1
c4 -6 5 -12 2 -15 -7 -7 -37 7 -37 17 0 13 27 11 35 -2z m1345 -41 c0 -29 -4
-58 -8 -65 -4 -6 -7 17 -8 53 0 35 4 64 8 64 4 0 8 -24 8 -52z m-2115 32 c-3
-5 -11 -10 -16 -10 -6 0 -7 5 -4 10 3 6 11 10 16 10 6 0 7 -4 4 -10z m215 0
c0 -5 -5 -10 -11 -10 -5 0 -7 5 -4 10 3 6 8 10 11 10 2 0 4 -4 4 -10z m1668
-8 c3 -8 -3 -12 -14 -10 -12 2 -20 -4 -22 -17 -5 -25 -22 -46 -32 -40 -10 6
-34 -70 -26 -83 7 -12 -35 -62 -52 -62 -30 0 -15 62 20 88 10 7 18 19 18 27 0
7 11 22 25 33 14 11 25 25 25 32 0 40 46 66 58 32z m-1148 -7 c10 -13 9 -15
-9 -15 -12 0 -21 6 -21 15 0 8 4 15 9 15 5 0 14 -7 21 -15z m1407 -7 c-3 -8
-6 -5 -6 6 -1 11 2 17 5 13 3 -3 4 -12 1 -19z m-2400 -25 c-3 -10 -5 -4 -5 12
0 17 2 24 5 18 2 -7 2 -21 0 -30z m1113 27 c0 -5 -9 -15 -19 -22 -10 -6 -17
-17 -15 -23 5 -13 -13 -31 -35 -37 -20 -4 -49 -31 -44 -40 6 -11 -47 -61 -55
-53 -4 4 0 12 8 18 8 7 31 34 50 61 50 73 110 125 110 96z m-1363 -32 c-3 -7
-5 -2 -5 12 0 14 2 19 5 13 2 -7 2 -19 0 -25z m538 22 c-3 -5 -11 -10 -16 -10
-6 0 -7 5 -4 10 3 6 11 10 16 10 6 0 7 -4 4 -10z m185 -19 c0 -4 -13 -6 -28
-3 -17 2 -35 -2 -43 -10 -8 -8 -19 -13 -25 -11 -6 2 -14 -5 -17 -17 -5 -18
-37 -30 -37 -12 1 13 27 42 39 42 6 0 11 4 11 8 0 13 64 28 83 20 9 -5 17 -12
17 -17z m-740 -26 c0 -8 -4 -15 -10 -15 -5 0 -7 7 -4 15 4 8 8 15 10 15 2 0 4
-7 4 -15z m300 11 c0 -3 -4 -8 -10 -11 -5 -3 -10 -1 -10 4 0 6 5 11 10 11 6 0
10 -2 10 -4z m190 0 c0 -11 -19 -15 -25 -6 -3 5 1 10 9 10 9 0 16 -2 16 -4z
m1756 -5 c-3 -5 -15 -7 -26 -4 -28 7 -25 13 6 13 14 0 23 -4 20 -9z m364 -1
c0 -5 -4 -10 -10 -10 -5 0 -10 5 -10 10 0 6 5 10 10 10 6 0 10 -4 10 -10z
m-23 -67 c-3 -10 -5 -2 -5 17 0 19 2 27 5 18 2 -10 2 -26 0 -35z m-2097 33 c0
-2 -7 -6 -15 -10 -8 -3 -15 -1 -15 4 0 6 7 10 15 10 8 0 15 -2 15 -4z m1724
-20 c-3 -9 -12 -16 -20 -16 -11 0 -10 4 3 20 19 22 26 21 17 -4z m-2264 -22
c0 -23 24 -35 32 -15 2 5 12 3 22 -5 19 -14 19 -14 -3 -14 -21 0 -23 -3 -17
-31 3 -17 6 -42 6 -56 0 -14 4 -21 10 -18 6 3 10 19 10 35 0 16 3 31 8 33 4 3
5 -15 3 -39 -1 -24 -7 -44 -12 -44 -6 0 -7 -15 -3 -35 3 -19 4 -35 0 -35 -11
0 -36 71 -39 115 -2 25 -9 50 -14 57 -15 19 -27 92 -14 83 6 -3 11 -17 11 -31z
m1227 14 c-3 -8 -6 -5 -6 6 -1 11 2 17 5 13 3 -3 4 -12 1 -19z m1160 0 c-3 -8
-6 -5 -6 6 -1 11 2 17 5 13 3 -3 4 -12 1 -19z m-1752 2 c3 -5 1 -10 -4 -10 -6
0 -11 5 -11 10 0 6 2 10 4 10 3 0 8 -4 11 -10z m-388 -42 c-3 -8 -6 -5 -6 6
-1 11 2 17 5 13 3 -3 4 -12 1 -19z m371 -13 c1 -19 -3 -35 -8 -35 -6 0 -10 12
-11 28 0 25 -1 25 -12 8 -7 -10 -26 -35 -44 -54 -24 -27 -29 -39 -21 -49 8
-10 6 -13 -6 -13 -9 0 -16 -6 -16 -13 0 -7 -9 -23 -21 -35 -11 -12 -17 -26
-14 -31 3 -5 1 -12 -5 -16 -5 -3 -10 -1 -10 4 0 6 -5 11 -10 11 -7 0 -7 -7 1
-21 8 -15 8 -23 0 -28 -6 -4 -9 -25 -7 -46 2 -27 -2 -44 -13 -53 -9 -8 -10
-10 -2 -6 9 5 12 3 7 -4 -4 -7 -14 -12 -22 -12 -8 0 -14 -7 -14 -15 0 -8 -8
-15 -17 -15 -15 0 -15 2 -4 9 8 5 11 16 8 24 -5 14 13 80 26 93 4 4 7 14 7 23
0 18 57 143 69 151 4 3 20 23 37 45 47 64 65 80 95 84 3 1 6 -15 7 -34z m579
13 c-3 -8 -6 -5 -6 6 -1 11 2 17 5 13 3 -3 4 -12 1 -19z m43 -30 c0 -10 -4
-18 -10 -18 -5 0 -7 6 -4 14 3 8 0 25 -6 38 -11 22 -10 22 4 4 9 -11 16 -28
16 -38z m996 25 c-10 -10 -19 5 -10 18 6 11 8 11 12 0 2 -7 1 -15 -2 -18z
m294 16 c0 8 2 12 5 9 8 -7 -5 -38 -16 -38 -5 0 -9 10 -9 23 0 18 2 19 10 7 8
-12 10 -12 10 -1z m-320 -8 c0 -5 -7 -14 -15 -21 -12 -10 -15 -10 -15 2 0 8 3
18 7 21 9 10 23 9 23 -2z m423 -29 c-11 -27 -45 -83 -49 -79 -6 6 20 67 29 67
4 0 5 5 2 10 -8 13 4 32 15 25 5 -3 6 -13 3 -23z m-1297 -8 c-9 -9 -19 -14
-22 -11 -3 2 3 12 12 21 9 9 19 15 21 12 3 -3 -2 -13 -11 -22z m964 -23 c13
-26 14 -52 0 -31 -9 13 -11 13 -20 0 -5 -8 -8 -21 -5 -27 5 -15 -11 -17 -20
-3 -7 12 15 80 27 80 4 0 12 -9 18 -19z m-2010 5 c0 -3 -4 -8 -10 -11 -5 -3
-10 -1 -10 4 0 6 5 11 10 11 6 0 10 -2 10 -4z m1900 -25 c0 -6 -4 -13 -10 -16
-5 -3 -10 1 -10 9 0 9 5 16 10 16 6 0 10 -4 10 -9z m-1953 -58 c-3 -10 -5 -4
-5 12 0 17 2 24 5 18 2 -7 2 -21 0 -30z m2020 -9 c2 -10 -6 -30 -18 -44 -15
-18 -19 -20 -15 -7 3 10 6 32 6 49 0 33 23 35 27 2z m-1981 -21 c-11 -11 -17
4 -9 23 7 18 8 18 11 1 2 -10 1 -21 -2 -24z m-3417 -8 c136 -69 224 -263 306
-673 12 -61 16 -123 13 -240 -3 -156 -3 -158 -37 -227 -65 -132 -120 -200
-226 -280 -85 -63 -180 -109 -263 -129 -82 -19 -166 -2 -245 48 -55 35 -176
159 -201 206 -7 14 -36 65 -64 114 -63 110 -89 187 -98 292 -5 70 -3 92 16
150 31 93 84 205 138 289 25 39 56 88 70 110 62 99 198 241 290 303 112 75
204 87 301 37z m5258 -26 c-8 -21 -13 -26 -15 -14 -5 21 5 45 17 45 5 0 4 -13
-2 -31z m453 21 c0 -5 -4 -10 -10 -10 -5 0 -10 5 -10 10 0 6 5 10 10 10 6 0
10 -4 10 -10z m-367 -15 c-3 -9 -8 -14 -10 -11 -3 3 -2 9 2 15 9 16 15 13 8
-4z m-2098 -32 c1 -13 5 -26 10 -30 4 -5 5 0 2 10 -4 10 -3 16 2 13 5 -3 9
-36 9 -72 0 -49 -3 -62 -10 -50 -6 10 -8 30 -6 46 3 20 1 27 -9 23 -16 -6 -8
-62 14 -107 8 -15 13 -37 10 -47 -3 -11 -1 -22 4 -25 5 -3 9 1 9 9 0 8 7 17
15 21 8 3 15 1 15 -4 0 -6 -4 -10 -9 -10 -5 0 -12 -14 -16 -31 -9 -39 -22 -27
-34 31 -7 38 -32 135 -57 225 -4 16 -3 17 5 5 9 -13 11 -12 11 3 0 27 33 17
35 -10z m1978 -3 c3 -11 1 -20 -4 -20 -5 0 -9 9 -9 20 0 11 2 20 4 20 2 0 6
-9 9 -20z m411 5 c-4 -8 -8 -15 -10 -15 -2 0 -4 7 -4 15 0 8 4 15 10 15 5 0 7
-7 4 -15z m-307 -30 c-2 -38 -27 -50 -25 -12 1 20 15 47 24 47 2 0 3 -16 1
-35z m25 -27 c-8 -8 -9 -4 -5 13 4 13 8 18 11 10 2 -7 -1 -18 -6 -23z m308 1
c0 -5 -7 -9 -15 -9 -8 0 -15 7 -15 15 0 9 6 12 15 9 8 -4 15 -10 15 -15z
m-375 -43 c-6 -40 -10 -46 -32 -46 l-24 0 23 33 c13 17 24 35 24 40 1 4 2 12
3 19 0 6 4 9 7 6 3 -4 2 -27 -1 -52z m-1985 19 c0 -8 -4 -15 -10 -15 -5 0 -10
7 -10 15 0 8 5 15 10 15 6 0 10 -7 10 -15z m60 11 c0 -3 -4 -8 -10 -11 -5 -3
-10 -1 -10 4 0 6 5 11 10 11 6 0 10 -2 10 -4z m1827 -2 c-3 -3 -12 -4 -19 -1
-8 3 -5 6 6 6 11 1 17 -2 13 -5z m444 -47 c-8 -8 -11 -7 -11 4 0 9 3 19 7 23
4 4 9 2 11 -4 3 -7 -1 -17 -7 -23z m-451 9 c0 -3 -4 -8 -10 -11 -5 -3 -10 -1
-10 4 0 6 5 11 10 11 6 0 10 -2 10 -4z m-30 -30 c0 -3 -4 -8 -10 -11 -5 -3
-10 -1 -10 4 0 6 5 11 10 11 6 0 10 -2 10 -4z m-1846 -21 c-4 -8 -8 -15 -10
-15 -2 0 -4 7 -4 15 0 8 4 15 10 15 5 0 7 -7 4 -15z m36 1 c0 -7 -6 -19 -14
-25 -11 -9 -12 -6 -8 14 5 26 22 35 22 11z m1273 7 c-7 -2 -21 -2 -30 0 -10 3
-4 5 12 5 17 0 24 -2 18 -5z m64 1 c-3 -3 -12 -4 -19 -1 -8 3 -5 6 6 6 11 1
17 -2 13 -5z m53 -4 c0 -5 -4 -10 -10 -10 -5 0 -9 -3 -8 -7 5 -21 -17 -101
-38 -139 -13 -24 -24 -53 -25 -66 -1 -22 -1 -22 -10 3 -8 22 -5 35 19 73 17
26 33 68 37 94 4 26 9 50 12 55 6 10 23 9 23 -3z m829 -12 c-17 -34 -19 -34
-19 -5 0 18 5 27 15 27 13 0 14 -4 4 -22z m41 8 c0 -8 -4 -18 -10 -21 -5 -3
-10 3 -10 14 0 12 5 21 10 21 6 0 10 -6 10 -14z m-1039 -14 c-7 -2 -18 1 -23
6 -8 8 -4 9 13 5 13 -4 18 -8 10 -11z m700 3 c-1 -10 -51 -28 -51 -18 0 9 34
33 43 30 5 -1 8 -7 8 -12z m-3426 -56 c116 -69 208 -192 311 -414 102 -220
146 -486 110 -665 -14 -69 -27 -99 -66 -160 -89 -135 -214 -241 -372 -314
-123 -57 -187 -71 -285 -62 -144 12 -269 91 -422 266 -17 19 -31 38 -31 42 0
4 -6 13 -12 20 -69 75 -130 245 -130 358 2 170 102 424 242 611 78 104 243
271 304 308 73 44 103 51 207 48 79 -3 92 -6 144 -38z m1647 -63 c-7 -28 -14
-64 -17 -81 -7 -43 -23 -93 -24 -76 -1 11 -5 10 -16 -5 -15 -20 -18 -13 -9 24
4 12 13 22 20 22 10 0 14 13 14 42 0 45 32 158 38 138 3 -7 0 -36 -6 -64z
m1732 62 c-7 -11 -34 -10 -34 1 0 6 9 9 19 8 11 0 17 -5 15 -9z m73 6 c-3 -3
-12 -4 -19 -1 -8 3 -5 6 6 6 11 1 17 -2 13 -5z m-1217 -14 c0 -5 -4 -10 -10
-10 -5 0 -10 5 -10 10 0 6 5 10 10 10 6 0 10 -4 10 -10z m390 0 c-8 -5 -19
-10 -25 -10 -5 0 -3 5 5 10 8 5 20 10 25 10 6 0 3 -5 -5 -10z m620 -21 c0 -10
-4 -19 -9 -19 -5 0 -8 11 -7 24 1 28 16 24 16 -5z m-1106 -4 c-7 -17 -7 -17
-31 -8 -16 6 -15 8 7 14 14 4 26 7 27 8 1 1 0 -6 -3 -14z m636 2 c0 -8 -3 -17
-7 -20 -9 -9 -34 13 -27 24 8 14 34 11 34 -4z m564 -14 l-5 -28 20 24 c21 23
27 18 15 -13 -3 -9 -12 -16 -19 -16 -22 0 -70 -55 -99 -114 -18 -37 -32 -54
-38 -48 -6 6 -3 22 9 43 28 50 113 179 119 179 2 0 2 -12 -2 -27z m-808 -9
c-22 -15 -36 -18 -36 -6 0 9 43 30 50 24 3 -2 -4 -10 -14 -18z m214 -22 c0 -2
-6 1 -14 7 -12 10 -21 4 -47 -28 -34 -43 -53 -48 -26 -7 17 26 12 42 -9 25 -7
-6 -19 -9 -26 -6 -8 4 -5 8 10 12 12 4 22 11 22 15 0 5 12 13 28 18 22 7 30 5
45 -11 9 -11 17 -22 17 -25z m-527 -13 c-3 -11 -9 -22 -14 -25 -10 -6 -12 49
-2 59 10 11 21 -13 16 -34z m667 21 c0 -5 -5 -10 -11 -10 -5 0 -7 5 -4 10 3 6
8 10 11 10 2 0 4 -4 4 -10z m-783 -47 c-3 -10 -5 -4 -5 12 0 17 2 24 5 18 2
-7 2 -21 0 -30z m240 15 c-3 -8 -6 -5 -6 6 -1 11 2 17 5 13 3 -3 4 -12 1 -19z
m117 16 c9 -3 13 -11 10 -16 -4 -6 -9 -6 -14 2 -6 9 -15 7 -38 -10 -16 -12
-36 -20 -44 -17 -8 3 -3 9 15 17 15 7 27 17 27 22 0 9 22 11 44 2z m706 -8 c0
-8 3 -21 6 -29 3 -8 -2 -21 -11 -30 -9 -10 -11 -18 -5 -22 6 -4 7 -11 4 -17
-5 -7 -9 -6 -14 3 -9 19 0 109 11 109 5 0 9 -6 9 -14z m510 -2 c0 -14 -3 -15
-17 -3 -10 7 -20 15 -22 16 -2 2 5 3 17 3 14 0 22 -6 22 -16z m-940 -13 c0 -5
-7 -11 -15 -15 -8 -3 -15 -12 -15 -21 0 -8 -5 -15 -10 -15 -6 0 -4 13 5 30 15
28 35 41 35 21z m-184 -36 c2 -21 -1 -24 -12 -14 -8 7 -17 9 -21 5 -3 -3 -1
-6 6 -6 7 0 9 -4 6 -10 -9 -15 -35 -12 -35 4 0 12 35 44 50 45 3 1 6 -10 6
-24z m-361 -25 c-9 -14 -25 5 -25 30 0 12 3 12 16 -2 9 -9 13 -21 9 -28z m42
18 c-3 -8 -6 -5 -6 6 -1 11 2 17 5 13 3 -3 4 -12 1 -19z m1418 -32 c-19 -29
-35 -26 -35 7 0 17 2 19 9 8 7 -11 12 -10 22 8 8 11 15 17 17 12 2 -6 -4 -21
-13 -35z m-1038 28 c-3 -3 -12 -4 -19 -1 -8 3 -5 6 6 6 11 1 17 -2 13 -5z
m680 -41 c-3 -10 -5 -2 -5 17 0 19 2 27 5 18 2 -10 2 -26 0 -35z m-1217 25 c0
-7 -5 -20 -10 -28 -8 -12 -10 -9 -10 13 0 15 5 27 10 27 6 0 10 -6 10 -12z
m280 4 c0 -11 -22 -32 -33 -32 -5 0 -4 6 2 13 6 8 8 17 4 20 -3 4 1 7 10 7 10
0 17 -4 17 -8z m-333 -34 c-3 -7 -5 -2 -5 12 0 14 2 19 5 13 2 -7 2 -19 0 -25z
m458 11 c-8 -12 -35 -12 -35 0 0 11 22 20 33 14 4 -2 5 -9 2 -14z m1045 7 c0
-6 -4 -17 -9 -24 -6 -10 -10 -7 -13 10 -3 16 0 25 9 25 7 0 13 -5 13 -11z
m-756 -23 c-4 -16 -14 -33 -23 -40 -24 -17 -27 -6 -5 18 10 12 18 23 17 25 -7
10 -2 24 7 24 6 0 8 -11 4 -27z m-102 -5 c-7 -7 -12 -8 -12 -2 0 14 12 26 19
19 2 -3 -1 -11 -7 -17z m-367 2 c-3 -5 -10 -10 -16 -10 -5 0 -9 5 -9 10 0 6 7
10 16 10 8 0 12 -4 9 -10z m168 -10 c5 -4 -7 -10 -27 -12 -20 -2 -36 -3 -36
-2 0 1 3 10 6 18 6 16 38 14 57 -4z m-853 -52 c0 -5 -9 -8 -20 -8 -11 0 -20
-7 -20 -16 0 -11 6 -14 20 -9 16 5 20 2 19 -17 0 -13 -3 -17 -6 -10 -11 28
-23 9 -17 -30 5 -39 4 -41 -9 -25 -13 15 -15 16 -21 2 -3 -8 -1 -15 4 -15 5 0
6 -27 3 -60 -6 -73 5 -146 17 -115 7 15 9 9 9 -22 1 -24 -3 -43 -9 -43 -5 0
-10 -7 -10 -15 0 -9 6 -12 15 -9 11 5 15 -1 15 -25 0 -17 -4 -31 -10 -31 -5 0
-10 -8 -10 -17 0 -14 2 -15 9 -4 5 7 11 9 14 5 6 -11 -9 -123 -17 -132 -6 -6
-10 38 -7 76 1 13 -3 30 -10 38 -6 8 -9 26 -6 41 3 15 -6 70 -20 122 -26 102
-26 121 1 246 18 80 41 118 58 92 4 -6 8 -15 8 -19z m593 25 c-7 -2 -13 -12
-13 -20 0 -9 6 -13 15 -9 17 6 21 -9 5 -19 -11 -7 -40 17 -40 33 0 11 17 20
35 20 6 0 4 -2 -2 -5z m167 -18 c-5 -14 -7 -32 -4 -40 5 -11 -1 -15 -26 -15
-20 0 -29 -4 -24 -11 4 -8 -3 -9 -25 -4 -25 5 -31 3 -31 -10 0 -9 -4 -13 -10
-10 -10 6 -14 -7 -11 -32 1 -7 -3 -13 -9 -13 -6 0 -8 5 -5 10 11 19 -10 10
-28 -11 -10 -11 -21 -18 -24 -15 -7 7 82 96 95 96 5 0 19 11 32 25 13 14 29
25 36 25 6 0 17 7 24 15 18 22 21 19 10 -10z m805 -25 c-13 -14 -14 -19 -3
-23 7 -2 4 -3 -6 -1 -11 2 -30 -9 -45 -25 -14 -15 -38 -36 -54 -45 -24 -16
-27 -16 -21 -2 3 9 10 16 14 16 7 0 79 70 109 106 11 12 16 14 19 5 2 -7 -3
-21 -13 -31z m420 20 c-20 -23 -29 -21 -19 4 3 9 13 16 22 16 13 0 12 -3 -3
-20z m-983 -12 c-7 -7 -12 -8 -12 -2 0 14 12 26 19 19 2 -3 -1 -11 -7 -17z
m102 4 c2 -4 -7 -19 -21 -32 -15 -14 -23 -18 -20 -10 4 8 10 23 13 33 7 18 19
22 28 9z m-534 -42 c0 -5 -5 -10 -11 -10 -5 0 -7 5 -4 10 3 6 8 10 11 10 2 0
4 -4 4 -10z m-200 -54 c-1 -21 -1 -21 -15 -2 -8 11 -15 29 -15 40 1 21 1 21
15 2 8 -11 15 -29 15 -40z m160 44 c0 -5 -2 -10 -4 -10 -3 0 -8 5 -11 10 -3 6
-1 10 4 10 6 0 11 -4 11 -10z m370 -9 c0 -15 5 -18 23 -14 12 3 28 13 35 21 6
9 12 11 12 5 0 -7 -10 -20 -23 -30 -13 -10 -26 -26 -30 -35 -3 -10 -14 -18
-24 -18 -17 1 -17 1 0 11 17 10 17 13 3 34 -18 28 -20 45 -6 45 6 0 10 -9 10
-19z m990 4 c0 -8 -4 -15 -10 -15 -5 0 -7 7 -4 15 4 8 8 15 10 15 2 0 4 -7 4
-15z m47 -27 c-3 -7 -5 -2 -5 12 0 14 2 19 5 13 2 -7 2 -19 0 -25z m-897 -15
c0 -19 -3 -24 -10 -17 -6 6 -8 18 -4 27 9 24 14 21 14 -10z m287 -3 c-6 -16
-17 -30 -24 -30 -7 0 -13 -8 -13 -19 0 -12 -7 -18 -17 -17 -11 0 -19 -7 -21
-21 -2 -12 -10 -24 -19 -27 -10 -4 -13 -2 -10 6 20 47 34 68 45 68 6 0 12 5
12 10 0 6 7 10 15 10 9 0 15 9 15 25 0 15 6 25 14 25 12 0 12 -5 3 -30z m-959
-45 c2 -15 1 -16 -6 -7 -5 8 -13 13 -18 12 -5 -1 -10 4 -12 10 -3 7 3 10 14 8
10 -2 20 -12 22 -23z m647 -14 c0 -32 -2 -37 -13 -29 -9 8 -16 8 -24 0 -7 -7
-9 -12 -5 -12 4 0 3 -9 -3 -20 -16 -29 -32 -15 -18 15 6 14 14 25 18 25 4 0
13 14 20 30 17 41 25 38 25 -9z m230 29 c-3 -5 -10 -10 -16 -10 -5 0 -9 5 -9
10 0 6 7 10 16 10 8 0 12 -4 9 -10z m175 -18 c0 -15 -24 -32 -44 -32 -20 0
-19 2 4 20 27 21 40 25 40 12z m-860 -22 c0 -17 -2 -19 -14 -8 -14 13 -12 28
5 28 5 0 9 -9 9 -20z m480 5 c0 -8 -2 -15 -4 -15 -2 0 -6 7 -10 15 -3 8 -1 15
4 15 6 0 10 -7 10 -15z m-140 1 c0 -3 -4 -8 -10 -11 -5 -3 -10 -1 -10 4 0 6 5
11 10 11 6 0 10 -2 10 -4z m307 -28 c-3 -7 -5 -2 -5 12 0 14 2 19 5 13 2 -7 2
-19 0 -25z m653 7 c0 -8 -4 -15 -10 -15 -5 0 -7 7 -4 15 4 8 8 15 10 15 2 0 4
-7 4 -15z m-1330 -5 c0 -5 -4 -10 -10 -10 -5 0 -10 5 -10 10 0 6 5 10 10 10 6
0 10 -4 10 -10z m825 -31 c0 -20 -6 -25 -33 -27 -24 -2 -32 -7 -28 -18 3 -8 1
-14 -4 -14 -5 0 -10 -9 -12 -20 -3 -18 -4 -17 -15 6 -10 21 -9 25 1 21 8 -3
13 1 12 10 0 8 13 23 30 32 17 9 29 22 26 30 -3 8 1 12 9 9 8 -3 14 -16 14
-29z m-519 -19 c-13 -32 -14 -32 -21 -11 -5 16 -2 26 12 36 24 18 26 14 9 -25z
m351 34 c-3 -3 -12 -4 -19 -1 -8 3 -5 6 6 6 11 1 17 -2 13 -5z m-687 -14 c0
-5 9 -10 20 -10 11 0 20 -3 20 -7 -1 -13 -24 -39 -42 -46 -9 -3 -18 -16 -21
-29 -4 -19 -3 33 2 90 1 14 21 17 21 2z m627 -12 c-3 -8 -6 -5 -6 6 -1 11 2
17 5 13 3 -3 4 -12 1 -19z m728 3 c3 -5 1 -12 -5 -16 -5 -3 -10 1 -10 9 0 18
6 21 15 7z m-911 -33 c6 -4 7 -10 3 -15 -5 -4 -12 -2 -16 5 -5 8 -15 10 -27 6
-18 -7 -18 -7 1 15 14 16 21 19 24 9 2 -7 9 -16 15 -20z m246 18 c0 -2 -7 -7
-16 -10 -8 -3 -12 -2 -9 4 6 10 25 14 25 6z m-880 -44 c0 -5 -7 -17 -15 -28
-14 -18 -14 -18 -15 9 0 17 5 27 15 27 8 0 15 -4 15 -8z m1510 -5 c0 -7 -6
-21 -12 -30 -12 -14 -15 -14 -32 -2 -11 8 -16 18 -12 22 4 4 11 1 15 -6 11
-17 34 -4 27 15 -3 8 -1 14 4 14 6 0 10 -6 10 -13z m-570 -11 c0 -2 -7 -9 -15
-16 -12 -10 -15 -10 -15 4 0 9 7 16 15 16 8 0 15 -2 15 -4z m-1003 -28 c-3 -8
-6 -5 -6 6 -1 11 2 17 5 13 3 -3 4 -12 1 -19z m863 18 c0 -2 -7 -9 -15 -16
-12 -10 -15 -10 -15 4 0 9 7 16 15 16 8 0 15 -2 15 -4z m-373 -28 c-3 -8 -6
-5 -6 6 -1 11 2 17 5 13 3 -3 4 -12 1 -19z m484 -9 c9 -6 2 -9 -23 -9 -36 0
-37 1 -20 18 9 10 20 14 23 9 4 -5 13 -13 20 -18z m-156 -9 c3 -5 2 -10 -4
-10 -5 0 -13 5 -16 10 -3 6 -2 10 4 10 5 0 13 -4 16 -10z m-805 -16 c0 -8 -4
-12 -10 -9 -5 3 -10 10 -10 16 0 5 5 9 10 9 6 0 10 -7 10 -16z m37 -6 c-3 -8
-6 -5 -6 6 -1 11 2 17 5 13 3 -3 4 -12 1 -19z m683 18 c0 -3 -4 -8 -10 -11 -5
-3 -10 -1 -10 4 0 6 5 11 10 11 6 0 10 -2 10 -4z m190 -14 c0 -4 -5 -13 -12
-20 -9 -9 -5 -12 18 -12 24 -1 26 -2 12 -11 -10 -5 -24 -9 -30 -7 -22 4 -55
-20 -67 -51 -8 -19 -22 -31 -39 -34 -28 -6 -51 7 -38 20 4 4 12 1 17 -7 8 -12
10 -10 6 8 -3 12 -1 20 3 17 5 -3 15 3 22 14 7 10 22 20 33 22 11 3 21 13 24
24 5 27 51 61 51 37z m-160 -22 c-10 -19 -30 -28 -30 -14 0 6 30 33 38 34 1 0
-2 -9 -8 -20z m730 1 c0 -16 -12 -41 -20 -41 -4 0 -5 11 -2 25 4 23 22 36 22
16z m-1471 -108 l-13 -48 -9 32 c-8 25 -6 35 7 48 10 10 15 26 11 39 -5 20 -5
20 6 -1 9 -17 9 -34 -2 -70z m192 -28 c-9 -39 -9 -38 -10 26 -1 36 2 69 7 73
11 12 14 -55 3 -99z m-214 73 c-3 -8 -6 -5 -6 6 -1 11 2 17 5 13 3 -3 4 -12 1
-19z m686 15 c-7 -2 -19 -2 -25 0 -7 3 -2 5 12 5 14 0 19 -2 13 -5z m7 -23 c0
-5 -10 -15 -22 -21 -23 -12 -23 -12 -4 10 21 23 26 26 26 11z m176 -47 c-10
-10 -19 5 -10 18 6 11 8 11 12 0 2 -7 1 -15 -2 -18z m-132 -28 c-13 -13 -24
-29 -24 -34 0 -10 -80 -54 -87 -48 -1 2 5 13 13 26 13 17 19 20 30 10 11 -9
14 -8 14 7 0 25 47 75 64 68 10 -4 8 -11 -10 -29z m-244 10 c0 -8 -4 -15 -10
-15 -5 0 -10 7 -10 15 0 8 5 15 10 15 6 0 10 -7 10 -15z m75 -5 c3 -5 1 -10
-4 -10 -6 0 -11 5 -11 10 0 6 2 10 4 10 3 0 8 -4 11 -10z m812 -6 c-3 -3 -12
-4 -19 -1 -8 3 -5 6 6 6 11 1 17 -2 13 -5z m26 -34 c-3 -11 -12 -20 -20 -20
-11 0 -11 4 -3 20 6 11 15 20 19 20 5 0 7 -9 4 -20z m-1178 -37 c-9 -37 -18
-20 -9 19 4 18 9 27 11 20 3 -7 2 -24 -2 -39z m-464 7 c1 -5 2 -14 3 -19 0 -5
4 -13 9 -17 13 -13 8 -34 -9 -34 -8 0 -12 -4 -9 -10 3 -5 1 -10 -4 -10 -6 0
-11 21 -11 50 0 28 5 50 10 50 6 0 11 -4 11 -10z m1629 -10 c0 -5 -4 -10 -9
-10 -6 0 -13 5 -16 10 -3 6 1 10 9 10 9 0 16 -4 16 -10z m-770 -30 c8 -5 12
-11 9 -14 -7 -8 -49 5 -49 15 0 12 21 11 40 -1z m-41 -23 c-2 -1 -12 -9 -21
-16 -15 -12 -18 -11 -18 3 0 10 8 16 22 16 12 0 19 -1 17 -3z m-676 -14 c-7
-2 -19 -2 -25 0 -7 3 -2 5 12 5 14 0 19 -2 13 -5z m407 -3 c0 -5 -2 -10 -4
-10 -3 0 -8 5 -11 10 -3 6 -1 10 4 10 6 0 11 -4 11 -10z m990 6 c0 -3 -4 -8
-10 -11 -5 -3 -10 -1 -10 4 0 6 5 11 10 11 6 0 10 -2 10 -4z m40 0 c0 -3 -4
-8 -10 -11 -5 -3 -10 -1 -10 4 0 6 5 11 10 11 6 0 10 -2 10 -4z m-1481 -15
c23 -14 -18 -32 -44 -19 -19 11 -19 11 0 19 26 10 28 10 44 0z m658 -26 c-10
-7 -17 -17 -17 -23 0 -5 -7 -12 -15 -16 -8 -3 -15 -12 -15 -21 0 -8 -6 -15
-12 -15 -27 -1 -68 -49 -68 -78 0 -17 -6 -32 -15 -35 -21 -9 -28 10 -8 22 10
5 15 12 11 16 -12 12 -46 -5 -51 -25 -7 -27 -22 -25 -23 4 -1 18 6 26 33 37
19 7 29 15 22 18 -12 4 45 44 89 62 14 5 20 14 16 21 -4 7 -3 8 4 4 7 -4 12
-2 12 3 0 17 33 50 43 44 6 -3 3 -11 -6 -18z m-242 5 c-3 -5 -17 -10 -31 -10
-13 0 -24 5 -24 10 0 6 14 10 31 10 17 0 28 -4 24 -10z m1039 -5 c-7 -16 -24
-21 -24 -6 0 8 7 13 27 20 1 1 0 -6 -3 -14z m-770 -19 c-6 -16 -24 -23 -24 -8
0 10 22 33 27 28 2 -2 1 -11 -3 -20z m-601 -13 c-7 -2 -19 -2 -25 0 -7 3 -2 5
12 5 14 0 19 -2 13 -5z m-126 -28 c58 -9 64 -24 8 -17 -28 3 -45 1 -45 -6 0
-6 -3 -18 -7 -28 -4 -12 -3 -15 5 -10 8 5 12 -1 12 -18 0 -14 -5 -28 -10 -31
-6 -4 -8 -15 -5 -26 5 -14 2 -19 -13 -19 -18 0 -19 8 -19 90 0 79 2 88 16 81
9 -5 35 -12 58 -16z m1473 21 c0 -3 -4 -8 -10 -11 -5 -3 -10 -1 -10 4 0 6 5
11 10 11 6 0 10 -2 10 -4z m-49 -59 c-8 -8 -11 -7 -11 4 0 20 13 34 18 19 3
-7 -1 -17 -7 -23z m-1415 -34 c-11 -11 -19 6 -11 24 8 17 8 17 12 0 3 -10 2
-21 -1 -24z m134 27 c8 -5 11 -10 5 -10 -5 0 -17 5 -25 10 -8 5 -10 10 -5 10
6 0 17 -5 25 -10z m59 -33 c14 -3 19 -19 24 -67 7 -59 4 -80 -8 -68 -3 3 -6
22 -7 42 -1 25 -6 36 -17 37 -13 1 -13 2 2 6 21 5 22 17 3 32 -11 9 -15 9 -19
-1 -3 -7 -5 3 -5 22 0 19 2 28 5 19 2 -10 12 -19 22 -22z m1121 4 c-5 -11 -15
-23 -20 -26 -14 -9 -12 19 2 33 19 19 30 14 18 -7z m73 -6 c-10 -13 -23 -25
-30 -25 -6 0 -15 -9 -18 -20 -8 -26 -25 -26 -18 0 3 12 18 27 34 36 16 8 29
19 29 24 0 6 5 10 10 10 6 0 3 -11 -7 -25z m-942 -75 c-30 -25 -41 -25 -41 0
0 16 7 20 33 20 l32 -1 -24 -19z m832 13 c-7 -2 -21 -2 -30 0 -10 3 -4 5 12 5
17 0 24 -2 18 -5z m-53 -17 c0 -3 -4 -8 -10 -11 -5 -3 -10 -1 -10 4 0 6 5 11
10 11 6 0 10 -2 10 -4z m-848 -33 c-21 -14 -21 -17 -5 -28 16 -12 16 -14 0
-39 -20 -30 -44 -34 -49 -8 -2 9 -6 13 -9 7 -3 -5 1 -48 10 -95 17 -84 17 -85
49 -88 18 -2 32 1 32 7 0 6 15 11 33 10 l32 -1 -32 -10 c-18 -6 -33 -14 -33
-18 0 -15 -72 -1 -85 16 -19 27 -26 163 -9 196 15 29 75 80 84 71 3 -3 -5 -12
-18 -20z m938 23 c0 -3 -4 -8 -10 -11 -5 -3 -10 -1 -10 4 0 6 5 11 10 11 6 0
10 -2 10 -4z m-1267 -28 c5 -17 2 -20 -23 -16 -18 3 -26 0 -24 -7 3 -6 -13
-27 -36 -47 -26 -24 -40 -31 -40 -22 0 9 14 27 30 41 17 14 29 28 26 30 -7 8
28 39 46 40 9 1 18 -8 21 -19z m1197 -8 c0 -5 -7 -10 -16 -10 -8 0 -12 5 -9
10 3 6 10 10 16 10 5 0 9 -4 9 -10z m-240 -20 c-20 -13 -40 -13 -40 0 0 6 12
10 28 10 21 0 24 -2 12 -10z m128 3 c-10 -2 -28 -2 -40 0 -13 2 -5 4 17 4 22
1 32 -1 23 -4z m-68 -7 c0 -3 -4 -8 -10 -11 -5 -3 -10 -1 -10 4 0 6 5 11 10
11 6 0 10 -2 10 -4z m55 -27 c-52 -11 -72 -8 -35 5 19 7 42 11 50 7 10 -4 5
-8 -15 -12z m-892 -19 c3 -13 0 -20 -9 -20 -8 0 -14 9 -14 20 0 11 4 20 9 20
5 0 11 -9 14 -20z m607 -47 c23 -11 23 -12 4 -12 -12 -1 -37 -7 -56 -15 -19
-8 -40 -11 -47 -7 -16 10 8 21 45 21 13 0 24 5 24 10 0 6 -5 10 -11 10 -5 0
-7 5 -3 11 3 6 9 7 13 2 3 -5 17 -14 31 -20z m27 21 c-3 -3 -12 -4 -19 -1 -8
3 -5 6 6 6 11 1 17 -2 13 -5z m90 0 c-3 -3 -12 -4 -19 -1 -8 3 -5 6 6 6 11 1
17 -2 13 -5z m-1032 -54 c-8 -26 -25 -26 -18 0 4 16 2 19 -11 14 -9 -4 -15
-11 -13 -18 2 -6 -6 -16 -17 -21 -12 -6 -20 -19 -18 -28 2 -10 -3 -16 -10 -15
-7 2 -12 -5 -12 -14 1 -14 -2 -16 -17 -7 -11 5 -19 11 -19 13 0 1 14 18 30 36
17 18 30 29 30 24 0 -5 11 8 26 29 22 33 27 36 40 22 9 -9 13 -23 9 -35z m665
-24 c0 -2 -7 -6 -15 -10 -8 -3 -15 -1 -15 4 0 6 7 10 15 10 8 0 15 -2 15 -4z
m-333 -63 c-3 -10 -5 -2 -5 17 0 19 2 27 5 18 2 -10 2 -26 0 -35z m270 21 c-3
-3 -12 -4 -19 -1 -8 3 -5 6 6 6 11 1 17 -2 13 -5z m-733 -55 c-10 -11 -19 -17
-22 -14 -3 3 -11 0 -19 -6 -19 -17 -17 6 3 30 10 11 24 16 36 13 18 -4 18 -6
2 -23z m463 -31 c-3 -8 -6 -5 -6 6 -1 11 2 17 5 13 3 -3 4 -12 1 -19z m-509
-18 c8 -13 8 -20 1 -20 -5 0 -7 -4 -4 -10 3 -5 1 -10 -5 -10 -6 0 -8 -5 -4
-12 4 -6 3 -8 -4 -4 -6 3 -15 -2 -21 -11 -8 -14 -13 -15 -19 -5 -7 10 -11 10
-22 -3 -7 -8 -8 -15 -2 -15 5 0 8 -8 5 -19 -6 -22 -46 -43 -68 -35 -19 8 -9
25 13 22 11 -2 18 6 22 24 4 23 76 116 90 117 3 1 11 -8 18 -19z m22 10 c0 -5
-4 -10 -10 -10 -5 0 -10 5 -10 10 0 6 5 10 10 10 6 0 10 -4 10 -10z m572 -14
c19 6 19 5 1 -13 -16 -16 -19 -17 -25 -3 -4 8 -6 22 -6 30 0 10 2 9 5 -3 3
-13 10 -16 25 -11z m-214 -18 c18 -18 15 -33 -4 -18 -8 8 -32 17 -52 21 l-37
7 41 1 c22 0 45 -4 52 -11z m65 5 c-7 -2 -19 -2 -25 0 -7 3 -2 5 12 5 14 0 19
-2 13 -5z m198 -29 c12 -14 11 -16 -5 -13 -11 2 -21 10 -24 17 -5 17 13 15 29
-4z m-521 -48 c0 -3 -4 -8 -10 -11 -5 -3 -10 -1 -10 4 0 6 5 11 10 11 6 0 10
-2 10 -4z m246 -8 c4 -7 3 -10 -1 -5 -5 4 -18 -2 -29 -12 -14 -13 -26 -17 -35
-12 -11 7 -9 10 8 16 11 3 21 11 21 16 0 13 28 11 36 -3z m301 -45 c-3 -10 -5
-4 -5 12 0 17 2 24 5 18 2 -7 2 -21 0 -30z m-517 17 c0 -5 -7 -10 -15 -10 -8
0 -15 5 -15 10 0 6 7 10 15 10 8 0 15 -4 15 -10z m-300 -58 c0 -45 -11 -72
-29 -71 -10 0 -11 2 -3 6 6 2 12 16 12 29 0 29 -17 23 -30 -10 -8 -20 -9 -20
-10 4 0 20 -2 22 -10 10 -5 -8 -10 -10 -10 -4 0 18 38 47 51 38 8 -5 10 -2 6
8 -3 9 -3 19 0 22 11 11 23 -6 23 -32z m392 21 c-13 -3 -26 -11 -29 -19 -6
-17 -73 -48 -82 -38 -3 3 3 12 14 19 11 8 25 18 30 23 17 14 38 20 65 20 24
-1 24 -1 2 -5z m71 0 c-7 -2 -19 -2 -25 0 -7 3 -2 5 12 5 14 0 19 -2 13 -5z
m-353 -12 c0 -6 -4 -13 -10 -16 -5 -3 -10 1 -10 9 0 9 5 16 10 16 6 0 10 -4
10 -9z m110 0 c0 -5 -7 -11 -15 -15 -9 -3 -15 0 -15 9 0 8 7 15 15 15 8 0 15
-4 15 -9z m-84 -46 c-22 -17 -46 -20 -46 -6 0 10 22 18 50 20 11 0 10 -4 -4
-14z m681 -52 c-2 -16 -4 -5 -4 22 0 28 2 40 4 28 2 -13 2 -35 0 -50z m-542
38 c3 -5 -13 -17 -35 -27 -24 -11 -40 -24 -39 -34 3 -30 -1 -33 -20 -16 -18
16 -21 17 -45 1 -14 -9 -30 -15 -36 -13 -7 2 7 13 29 25 27 14 41 18 41 10 0
-7 5 -5 10 4 5 9 23 22 40 29 16 7 27 16 24 21 -3 5 2 9 10 9 8 0 17 -4 21 -9z
m-377 -32 c-6 -18 -19 -34 -29 -36 -37 -10 -18 -23 24 -18 31 4 37 3 22 -4
-11 -5 -30 -10 -42 -10 -14 -1 -23 -8 -25 -23 -3 -21 -4 -20 -10 5 -4 21 1 36
18 57 13 15 24 32 24 38 0 6 6 13 13 15 6 3 13 6 14 6 1 1 -3 -13 -9 -30z m32
0 c0 -11 -4 -18 -10 -14 -5 3 -7 12 -3 20 7 21 13 19 13 -6z m158 14 c-10 -2
-26 -2 -35 0 -10 3 -2 5 17 5 19 0 27 -2 18 -5z m-64 -34 c-6 -11 -24 -2 -24
11 0 5 7 7 15 4 8 -4 12 -10 9 -15z m226 -19 c0 -5 -2 -10 -4 -10 -3 0 -8 5
-11 10 -3 6 -1 10 4 10 6 0 11 -4 11 -10z m-160 -39 c0 -5 -10 -11 -22 -13
-14 -2 -24 -12 -28 -27 -5 -21 -7 -22 -18 -8 -11 13 -10 19 7 36 21 21 61 29
61 12z m-283 -34 c-24 -37 -79 -89 -86 -82 -3 4 4 15 17 25 12 10 22 24 22 31
0 7 3 9 7 6 3 -4 15 7 25 24 11 17 22 29 25 25 3 -3 -1 -16 -10 -29z m188 -13
c13 -5 8 -11 -22 -25 -40 -19 -59 -8 -27 16 22 17 26 17 49 9z m91 -38 c2 -15
-20 -16 -33 -1 -4 4 -2 5 5 1 7 -5 12 -1 12 10 0 19 13 11 16 -10z m-168 -14
c2 -7 -7 -12 -22 -12 -14 0 -26 -4 -26 -10 0 -5 5 -10 10 -10 6 0 1 -9 -10
-20 -11 -11 -20 -27 -20 -35 0 -19 -76 -21 -82 -3 -4 12 -16 5 -56 -34 -9 -9
-29 -19 -45 -23 -15 -4 -31 -14 -36 -23 -8 -15 -31 -9 -31 8 0 13 67 43 79 35
6 -3 11 0 11 8 0 17 67 53 105 56 8 0 15 8 15 16 0 8 7 15 15 15 9 0 28 11 43
25 28 26 43 28 50 7z m909 -199 c-2 -32 -3 -8 -3 52 0 61 1 87 3 58 2 -29 2
-78 0 -110z m-270 111 c-3 -3 -12 -4 -19 -1 -8 3 -5 6 6 6 11 1 17 -2 13 -5z
m-4697 -11 c0 -5 -5 -15 -10 -23 -7 -11 -10 -11 -10 -2 0 7 -4 10 -10 7 -5 -3
-10 1 -10 9 0 9 9 16 20 16 11 0 20 -3 20 -7z m4775 -23 c-28 -12 -37 -12 -30
0 3 6 16 10 28 9 21 0 21 -1 2 -9z m-225 -16 c0 -12 -6 -15 -22 -10 -13 3 -30
6 -38 7 -8 1 -1 5 15 9 45 11 45 11 45 -6z m-4505 -14 c3 -5 -1 -10 -9 -10 -8
0 -18 5 -21 10 -3 6 1 10 9 10 8 0 18 -4 21 -10z m90 -35 l30 -17 -28 6 c-29
7 -67 35 -67 50 0 5 8 2 18 -7 9 -8 31 -23 47 -32z m4335 35 c0 -5 8 -10 17
-10 11 0 14 -3 7 -10 -14 -14 -54 -1 -47 16 6 16 23 19 23 4z m-4504 -48 c-12
-11 -18 7 -10 30 l8 23 4 -23 c2 -13 1 -26 -2 -30z m4637 41 c-7 -2 -19 -2
-25 0 -7 3 -2 5 12 5 14 0 19 -2 13 -5z m254 0 c-4 -3 -3 -11 3 -17 6 -8 2
-16 -12 -25 -11 -7 -17 -8 -13 -2 3 6 -1 11 -9 11 -9 0 -16 5 -16 10 0 6 7 10
15 10 8 0 15 5 15 10 0 6 5 10 12 10 6 0 8 -3 5 -7z m-1142 -23 c-3 -5 -15
-10 -26 -10 -11 0 -19 -7 -19 -16 0 -9 -9 -18 -21 -21 -12 -3 -18 -11 -15 -19
4 -10 -2 -14 -18 -14 -13 0 -26 6 -29 14 -7 17 1 26 23 26 9 0 25 9 34 19 16
17 29 23 69 30 5 0 5 -3 2 -9z m115 0 c0 -5 -9 -10 -21 -10 -11 0 -17 5 -14
10 3 6 13 10 21 10 8 0 14 -4 14 -10z m-3792 -17 c-10 -2 -26 -2 -35 0 -10 3
-2 5 17 5 19 0 27 -2 18 -5z m237 -65 c7 -8 4 -9 -10 -3 -11 4 -28 7 -39 7
-10 -1 -25 5 -32 13 -8 7 -19 15 -26 17 -6 2 -8 9 -5 15 7 11 89 -25 112 -49z
m3628 55 c-7 -2 -19 -2 -25 0 -7 3 -2 5 12 5 14 0 19 -2 13 -5z m240 0 c-7 -2
-19 -2 -25 0 -7 3 -2 5 12 5 14 0 19 -2 13 -5z m747 0 c0 -5 -7 -17 -15 -27
-14 -19 -15 -19 -15 7 0 17 5 27 15 27 8 0 15 -3 15 -7z m-4861 -30 c0 -25 -1
-26 -9 -8 -12 27 -12 35 0 35 6 0 10 -12 9 -27z m3709 18 c11 -7 11 -9 -1 -14
-9 -3 -21 1 -27 9 -10 11 -10 14 1 14 8 0 20 -4 27 -9z m310 2 c-16 -2 -40 -2
-55 0 -16 2 -3 4 27 4 30 0 43 -2 28 -4z m-4077 -17 c5 3 9 -6 9 -20 0 -14 -4
-26 -10 -26 -6 0 -10 -30 -11 -67 -1 -52 -3 -62 -10 -43 -5 16 -7 -13 -4 -80
5 -108 -7 -167 -18 -92 -9 55 19 365 30 334 3 -6 9 -10 14 -6z m3609 -16 c0
-14 -40 -37 -80 -45 -26 -5 -32 -4 -24 4 6 6 21 14 34 16 13 3 31 11 39 20 17
17 31 20 31 5z m1343 -28 c-1 -11 4 -26 12 -32 19 -15 19 -30 2 -30 -16 0 -37
41 -37 71 0 12 5 19 13 16 6 -2 11 -13 10 -25z m-4636 -34 c-3 -7 -5 -2 -5 12
0 14 2 19 5 13 2 -7 2 -19 0 -25z m-7 -111 c-5 -33 -12 -62 -15 -65 -4 -4 -4
18 1 48 4 30 7 66 7 80 -1 17 1 20 7 10 4 -8 4 -41 0 -73z m-20 49 c0 -8 -4
-18 -10 -21 -5 -3 -10 3 -10 14 0 12 5 21 10 21 6 0 10 -6 10 -14z m-273 -58
c-3 -8 -6 -5 -6 6 -1 11 2 17 5 13 3 -3 4 -12 1 -19z m250 -30 c-3 -8 -6 -5
-6 6 -1 11 2 17 5 13 3 -3 4 -12 1 -19z m-270 -50 c-3 -8 -6 -5 -6 6 -1 11 2
17 5 13 3 -3 4 -12 1 -19z m270 -40 c-3 -7 -5 -2 -5 12 0 14 2 19 5 13 2 -7 2
-19 0 -25z m13 -83 c-7 -45 -7 -46 -9 -13 -1 32 8 74 14 66 1 -2 -1 -25 -5
-53z m246 -12 c-10 -10 -19 5 -10 18 6 11 8 11 12 0 2 -7 1 -15 -2 -18z m-661
-30 c-4 -21 -13 -45 -21 -54 -13 -15 -13 -21 0 -54 19 -44 20 -55 6 -55 -5 0
-10 9 -10 20 0 11 -4 20 -10 20 -11 0 -13 -16 -10 -65 1 -18 -7 -40 -19 -54
-12 -13 -21 -27 -21 -32 0 -7 -63 -21 -107 -23 -21 -2 -21 0 -8 14 14 13 17
13 25 0 7 -10 10 -11 10 -2 0 6 8 12 18 12 22 1 72 29 52 30 -13 0 -13 1 0 10
8 5 11 10 6 10 -5 0 -1 9 8 19 10 11 19 35 21 53 2 18 6 47 10 63 7 31 47 125
53 125 3 0 1 -17 -3 -37z m79 -112 c-4 -56 -11 -101 -16 -101 -5 0 -6 36 -1
83 4 45 7 97 7 115 0 23 2 29 8 18 4 -8 5 -60 2 -115z m553 113 c-3 -3 -12 -4
-19 -1 -8 3 -5 6 6 6 11 1 17 -2 13 -5z m-517 -49 c0 -19 -4 -35 -10 -35 -5 0
-10 16 -10 35 0 19 5 35 10 35 6 0 10 -16 10 -35z m500 21 c0 -2 -7 -9 -15
-16 -12 -10 -15 -10 -15 4 0 9 7 16 15 16 8 0 15 -2 15 -4z m107 -18 c-3 -8
-6 -5 -6 6 -1 11 2 17 5 13 3 -3 4 -12 1 -19z m1148 2 c-4 -7 -15 -10 -24 -7
-10 2 -26 -2 -36 -9 -24 -18 -55 -18 -55 0 0 18 12 22 73 25 35 1 47 -1 42 -9z
m130 0 c-4 -7 72 -10 221 -10 l227 0 -34 -35 c-30 -31 -80 -50 -64 -25 3 6 15
10 26 10 12 0 19 7 19 20 0 19 -7 20 -240 20 -144 0 -240 4 -240 9 0 6 19 12
43 14 23 2 43 4 45 5 2 1 0 -2 -3 -8z m505 6 c0 -2 -7 -7 -16 -10 -8 -3 -12
-2 -9 4 6 10 25 14 25 6z m-1915 -36 c3 -6 -4 -10 -17 -10 -18 0 -20 2 -8 10
19 12 18 12 25 0z m165 -22 c0 -17 -3 -18 -14 -8 -8 6 -12 18 -9 26 7 19 23 7
23 -18z m955 23 c-3 -5 5 -11 17 -13 33 -5 33 -25 -2 -43 -18 -9 -30 -12 -26
-7 7 12 -33 32 -61 30 -13 -1 -23 -7 -23 -14 0 -13 -70 -11 -70 2 -1 5 11 10
25 12 14 2 25 8 25 13 0 5 17 9 38 9 20 0 44 5 52 10 19 12 33 13 25 1z m609
-7 c17 -7 22 -34 6 -34 -5 0 -10 7 -10 15 0 17 -18 18 -100 8 l-55 -8 40 -6
40 -6 -42 -2 c-32 -1 -43 3 -43 14 0 11 -18 15 -82 18 -48 1 -16 4 74 5 86 1
163 -1 172 -4z m-1907 -66 c-2 -13 -4 -3 -4 22 0 25 2 35 4 23 2 -13 2 -33 0
-45z m1566 45 c96 -5 97 -5 97 -30 0 -25 -1 -25 -52 -19 -160 19 -177 19 -184
2 -3 -9 -15 -16 -25 -16 -22 0 -39 32 -21 38 7 2 10 8 7 13 -4 5 1 6 9 3 9 -4
18 0 22 9 4 10 13 14 27 10 12 -3 66 -8 120 -10z m-455 -43 c10 -17 10 -20 -4
-20 -9 0 -12 5 -8 12 5 8 -2 9 -27 5 -32 -6 -33 -6 -15 8 26 20 39 19 54 -5z
m82 0 c12 -8 9 -10 -12 -10 -16 0 -28 5 -28 10 0 13 20 13 40 0z m-1080 -22
c0 -13 -11 -36 -25 -53 -23 -28 -24 -29 -25 -7 0 12 4 22 9 22 5 0 11 14 15
30 6 35 26 40 26 8z m910 13 c0 -5 -18 -12 -40 -16 -25 -4 -40 -12 -40 -21 0
-10 -13 -14 -44 -14 -25 0 -48 -4 -51 -10 -3 -5 -15 -10 -26 -10 -35 0 -11 18
39 29 26 6 70 19 97 30 59 23 65 24 65 12z m240 -7 c0 -2 -12 -4 -27 -4 -21 0
-24 3 -14 9 13 8 41 5 41 -5z m-626 -38 c-3 -8 -18 -16 -34 -18 -16 -2 -27 -1
-24 4 3 4 14 8 25 8 10 0 19 5 19 10 0 6 4 10 10 10 5 0 7 -6 4 -14z m-634
-21 c0 -14 -4 -25 -9 -25 -4 0 -6 11 -3 25 2 14 6 25 8 25 2 0 4 -11 4 -25z
m457 19 c-3 -3 -12 -4 -19 -1 -8 3 -5 6 6 6 11 1 17 -2 13 -5z m483 -24 c0 -5
-10 -10 -22 -10 -19 0 -20 2 -8 10 19 13 30 13 30 0z m-1285 -10 c3 -5 -1 -10
-10 -10 -9 0 -13 5 -10 10 3 6 8 10 10 10 2 0 7 -4 10 -10z m465 0 c0 -5 -4
-10 -10 -10 -5 0 -10 5 -10 10 0 6 5 10 10 10 6 0 10 -4 10 -10z m670 0 c8 -5
11 -10 5 -10 -5 0 -17 5 -25 10 -8 5 -10 10 -5 10 6 0 17 -5 25 -10z m-27 -10
c15 -1 -94 -39 -111 -40 -7 0 -10 5 -7 10 3 6 15 10 26 10 11 0 27 7 36 16 9
8 22 13 30 10 8 -3 20 -6 26 -6z m-418 -10 c3 -6 -4 -10 -17 -10 -18 0 -20 2
-8 10 19 12 18 12 25 0z m140 0 c-3 -5 -10 -10 -16 -10 -5 0 -9 5 -9 10 0 6 7
10 16 10 8 0 12 -4 9 -10z m1245 -17 c-8 -4 -20 -13 -27 -22 -6 -9 -15 -13
-19 -8 -9 9 26 37 46 36 13 -1 13 -1 0 -6z m-1110 -13 c0 -5 -7 -10 -15 -10
-9 0 -18 -7 -21 -15 -4 -8 -13 -15 -20 -15 -24 0 2 38 28 43 13 2 24 5 26 6 1
0 2 -3 2 -9z m-1125 -28 c-3 -3 -11 0 -18 7 -9 10 -8 11 6 5 10 -3 15 -9 12
-12z m825 14 c0 -3 -4 -8 -10 -11 -5 -3 -10 -1 -10 4 0 6 5 11 10 11 6 0 10
-2 10 -4z m220 -6 c0 -5 -5 -10 -11 -10 -5 0 -7 5 -4 10 3 6 8 10 11 10 2 0 4
-4 4 -10z m-1143 -16 c-3 -3 -12 -4 -19 -1 -8 3 -5 6 6 6 11 1 17 -2 13 -5z
m-47 -7 c0 -2 -14 -19 -30 -38 -17 -18 -27 -35 -21 -37 5 -2 -3 -22 -18 -44
-16 -23 -26 -49 -23 -60 3 -14 -1 -18 -22 -18 -18 0 -26 -5 -26 -18 0 -10 -13
-34 -30 -52 -16 -18 -30 -44 -30 -56 0 -22 -34 -64 -52 -64 -4 0 -8 7 -8 15 0
8 6 15 14 15 7 0 16 13 19 29 4 16 15 38 25 48 11 10 23 29 27 42 13 43 47 93
55 81 6 -9 9 -9 15 0 4 7 2 16 -5 20 -8 5 -9 10 -2 14 6 3 13 0 16 -6 3 -7 3
-3 0 9 -3 13 2 28 14 40 10 10 29 33 41 51 18 26 41 42 41 29z m829 -4 l23 -6
-23 -13 c-30 -17 -66 -18 -75 -2 -5 8 2 9 24 5 33 -7 55 8 25 16 -10 3 -13 5
-8 6 6 0 21 -2 34 -6z m1388 -12 c2 -19 -51 -50 -64 -38 -3 4 6 11 21 16 14 6
26 17 26 26 0 22 15 18 17 -4z m-1129 -3 c-3 -7 -23 -16 -46 -21 -23 -4 -42
-12 -42 -18 0 -5 -12 -9 -26 -9 -24 0 -22 3 18 24 41 22 66 31 91 35 5 0 7 -5
5 -11z m-354 -30 c-3 -4 -9 -8 -15 -8 -5 0 -9 4 -9 8 0 5 7 9 15 9 8 0 12 -4
9 -9z m-744 -8 c0 -5 -5 -10 -11 -10 -5 0 -7 5 -4 10 3 6 8 10 11 10 2 0 4 -4
4 -10z m1120 -3 c0 -9 -16 -14 -51 -15 -60 -1 -57 9 4 19 23 3 43 7 45 8 1 0
2 -5 2 -12z m-180 -6 c0 -5 -7 -11 -15 -15 -15 -5 -20 5 -8 17 9 10 23 9 23
-2z m-40 -19 c0 -5 -6 -9 -12 -9 -7 0 -22 -4 -33 -8 l-20 -8 20 16 c22 18 45
22 45 9z m1237 2 c-3 -3 -12 -4 -19 -1 -8 3 -5 6 6 6 11 1 17 -2 13 -5z m-117
-14 c0 -5 7 -10 16 -10 14 0 14 -3 4 -15 -7 -8 -20 -15 -29 -15 -14 0 -14 2
-1 11 11 8 12 12 3 16 -15 6 -17 23 -3 23 6 0 10 -4 10 -10z m-1420 -10 c0 -5
-9 -10 -20 -10 -11 0 -20 5 -20 10 0 6 9 10 20 10 11 0 20 -4 20 -10z m203
-21 c-4 -15 -9 -16 -29 -7 -28 13 -22 28 10 26 16 -2 22 -7 19 -19z m-286 -5
c-16 -9 -32 -13 -35 -9 -9 9 19 25 43 24 16 0 15 -2 -8 -15z m208 -4 c-3 -5
-1 -10 6 -10 7 0 10 -2 8 -5 -3 -2 -15 -2 -28 2 -17 4 -19 8 -9 14 18 12 31
11 23 -1z m152 -6 c-3 -3 -12 -4 -19 -1 -8 3 -5 6 6 6 11 1 17 -2 13 -5z m823
-24 c0 -5 -5 -10 -11 -10 -5 0 -7 5 -4 10 3 6 8 10 11 10 2 0 4 -4 4 -10z m53
3 c-7 -2 -19 -2 -25 0 -7 3 -2 5 12 5 14 0 19 -2 13 -5z m-1138 -13 c-3 -5
-14 -10 -23 -10 -15 0 -15 2 -2 10 20 13 33 13 25 0z m1225 0 c0 -5 -10 -10
-22 -10 -19 0 -20 2 -8 10 19 13 30 13 30 0z m-280 -10 c0 -5 6 -10 13 -10 8
0 19 -12 26 -27 11 -23 10 -25 -3 -14 -10 8 -26 11 -42 7 -16 -4 -23 -3 -20 3
4 5 2 12 -4 16 -18 11 -11 35 10 35 11 0 20 -4 20 -10z m-1000 -9 c0 -13 -26
-32 -33 -24 -8 7 11 33 24 33 5 0 9 -4 9 -9z m1175 -11 c-11 -5 -29 -9 -40 -9
l-20 0 20 9 c11 5 29 9 40 9 l20 0 -20 -9z m-1145 -19 c0 -5 -9 -11 -19 -14
-14 -3 -18 -1 -14 9 6 15 33 19 33 5z m775 -21 c-3 -5 -14 -10 -23 -9 -14 0
-13 2 3 9 27 11 27 11 20 0z m-128 -6 c-3 -3 -12 -4 -19 -1 -8 3 -5 6 6 6 11
1 17 -2 13 -5z m43 -14 c0 -5 7 -10 15 -10 8 0 15 -4 15 -10 0 -11 -6 -12 -37
-4 -13 4 -20 11 -16 20 6 16 23 19 23 4z m165 0 c17 -7 16 -9 -10 -9 -16 -1
-39 -3 -50 -5 -11 -2 -14 -1 -7 1 6 3 12 9 12 14 0 11 28 11 55 -1z m-205 -20
c0 -5 -9 -10 -20 -10 -11 0 -20 -4 -20 -10 0 -5 -17 -9 -37 -9 -31 2 -33 3
-10 6 15 2 40 11 55 19 32 17 32 17 32 4z m-632 -37 c-10 -2 -26 -2 -35 0 -10
3 -2 5 17 5 19 0 27 -2 18 -5z m495 0 c-13 -2 -33 -2 -45 0 -13 2 -3 4 22 4
25 0 35 -2 23 -4z m-198 -12 c45 -2 -11 -21 -60 -20 -27 1 -41 3 -30 6 11 3
24 9 28 13 5 4 16 7 25 5 10 -2 26 -4 37 -4z m98 2 c-7 -2 -19 -2 -25 0 -7 3
-2 5 12 5 14 0 19 -2 13 -5z m-275 -34 c-28 -6 -74 -6 -110 -1 -60 8 -57 9 47
9 93 1 103 -1 63 -8z m-171 -25 c-3 -3 -12 -4 -19 -1 -8 3 -5 6 6 6 11 1 17
-2 13 -5z m-454 -11 c-13 -2 -23 -9 -23 -14 0 -5 10 -9 23 -10 21 0 21 -1 2
-8 -11 -5 -22 -5 -25 -1 -3 3 -14 10 -25 15 -19 7 -19 8 5 15 14 5 34 8 45 8
17 -1 16 -1 -2 -5z m209 -5 c-9 -9 -15 -9 -24 0 -9 9 -7 12 12 12 19 0 21 -3
12 -12z m-522 -8 c13 -8 12 -10 -5 -11 -11 -1 -23 -1 -27 0 -4 0 -5 -6 -2 -14
4 -8 1 -15 -5 -15 -6 0 -11 6 -11 13 0 8 -4 7 -10 -3 -13 -20 -13 -4 0 21 12
21 36 24 60 9z m50 0 c0 -5 -7 -10 -15 -10 -8 0 -15 5 -15 10 0 6 7 10 15 10
8 0 15 -4 15 -10z m157 4 c-3 -3 -12 -4 -19 -1 -8 3 -5 6 6 6 11 1 17 -2 13
-5z m381 -1 c-10 -2 -26 -2 -35 0 -10 3 -2 5 17 5 19 0 27 -2 18 -5z m-420
-38 c3 -3 -15 -5 -39 -4 -32 0 -39 3 -24 8 20 8 53 6 63 -4z m-118 -5 c0 -5
-7 -7 -15 -4 -8 4 -15 8 -15 10 0 2 7 4 15 4 8 0 15 -4 15 -10z"/>
<path d="M8700 7260 c0 -5 5 -10 10 -10 6 0 10 5 10 10 0 6 -4 10 -10 10 -5 0
-10 -4 -10 -10z"/>
<path d="M8528 7143 c7 -3 16 -2 19 1 4 3 -2 6 -13 5 -11 0 -14 -3 -6 -6z"/>
<path d="M7547 7160 c-3 -11 -1 -20 4 -20 5 0 9 9 9 20 0 11 -2 20 -4 20 -2 0
-6 -9 -9 -20z"/>
<path d="M8700 6755 c-8 -9 -8 -15 -2 -15 12 0 26 19 19 26 -2 2 -10 -2 -17
-11z"/>
<path d="M3696 6041 c-10 -11 -22 -37 -27 -58 -6 -21 -15 -54 -20 -73 -23 -78
-64 -400 -79 -608 -7 -105 -7 -179 0 -248 12 -113 22 -144 51 -162 39 -25 67
19 89 138 25 132 71 621 71 756 1 227 -29 317 -85 255z"/>
<path d="M5441 5768 c-36 -38 -73 -175 -118 -433 -25 -146 -28 -182 -28 -410
0 -219 2 -254 17 -277 76 -116 183 95 218 430 14 138 13 605 -1 657 -17 60
-51 73 -88 33z"/>
<path d="M7232 5240 c0 -14 2 -19 5 -12 2 6 2 18 0 25 -3 6 -5 1 -5 -13z"/>
<path d="M7987 5574 c-13 -13 -7 -24 14 -24 11 0 19 5 17 12 -5 14 -22 21 -31
12z"/>
<path d="M4364 3035 c-10 -8 -14 -15 -8 -15 6 0 17 7 24 15 16 19 9 19 -16 0z"/>
<path d="M5192 9998 c5 -15 28 -23 28 -10 0 5 -7 13 -16 16 -10 4 -14 1 -12
-6z"/>
<path d="M6905 9986 c39 -13 97 -31 130 -41 33 -9 76 -24 96 -32 26 -10 42
-12 54 -5 23 12 18 14 -100 45 -232 61 -306 74 -180 33z"/>
<path d="M7359 9978 c0 -13 -3 -36 -5 -53 -11 -65 -9 -128 4 -132 9 -4 12 21
12 101 0 58 -2 106 -5 106 -3 0 -5 -10 -6 -22z"/>
<path d="M4898 9983 c7 -3 16 -2 19 1 4 3 -2 6 -13 5 -11 0 -14 -3 -6 -6z"/>
<path d="M5235 9970 c3 -5 15 -10 26 -10 11 0 17 5 14 10 -3 6 -15 10 -26 10
-11 0 -17 -4 -14 -10z"/>
<path d="M7526 9905 c-3 -8 -1 -27 4 -41 6 -14 11 -40 11 -57 1 -23 4 -15 11
25 10 58 7 88 -11 88 -5 0 -11 -7 -15 -15z"/>
<path d="M7201 9478 c-3 -342 -1 -410 10 -406 19 6 29 71 24 148 -3 36 -7 198
-11 360 -3 162 -9 298 -12 302 -4 4 -9 -178 -11 -404z"/>
<path d="M6511 9834 c51 -39 213 -114 246 -114 27 1 27 1 9 15 -11 8 -29 15
-40 15 -28 0 -110 40 -188 92 -44 29 -68 22 -27 -8z"/>
<path d="M5420 9830 c8 -5 22 -10 30 -10 13 0 13 1 0 10 -8 5 -22 10 -30 10
-13 0 -13 -1 0 -10z"/>
<path d="M6710 9810 c0 -12 59 -50 78 -50 22 0 12 18 -22 39 -36 23 -56 27
-56 11z"/>
<path d="M6820 9750 c19 -13 30 -13 30 0 0 6 -10 10 -22 10 -19 0 -20 -2 -8
-10z"/>
<path d="M6891 9721 c8 -6 63 -18 122 -27 88 -15 108 -15 122 -4 9 7 12 17 8
21 -4 4 -66 10 -138 14 -86 3 -125 2 -114 -4z"/>
<path d="M7080 9630 c0 -5 21 -10 48 -9 38 1 42 2 22 9 -36 12 -70 12 -70 0z"/>
<path d="M6952 9621 c-10 -6 -6 -11 15 -19 75 -29 173 -42 173 -23 0 17 -26
30 -70 36 -25 3 -58 8 -75 10 -16 3 -36 1 -43 -4z"/>
<path d="M6430 9610 c8 -5 23 -10 33 -10 9 0 17 -3 17 -8 0 -8 52 -27 130 -47
130 -33 166 -42 188 -49 13 -5 22 -3 22 3 0 6 -8 11 -18 11 -10 0 -27 7 -38
15 -10 8 -29 15 -41 15 -12 0 -25 5 -28 10 -3 6 -17 10 -31 10 -13 0 -24 5
-24 10 0 6 -16 10 -35 10 -20 0 -61 9 -92 20 -62 22 -110 27 -83 10z"/>
<path d="M8828 9613 c7 -3 16 -2 19 1 4 3 -2 6 -13 5 -11 0 -14 -3 -6 -6z"/>
<path d="M8870 9590 c20 -13 43 -13 35 0 -3 6 -16 10 -28 10 -18 0 -19 -2 -7
-10z"/>
<path d="M7346 9567 c-8 -32 2 -329 11 -338 5 -5 8 75 8 176 0 174 -5 216 -19
162z"/>
<path d="M5585 9570 c3 -5 14 -10 23 -10 15 0 15 2 2 10 -20 13 -33 13 -25 0z"/>
<path d="M5650 9552 c0 -11 38 -29 75 -35 17 -3 38 -9 48 -12 9 -4 17 -3 17 3
0 10 -102 52 -126 52 -8 0 -14 -4 -14 -8z"/>
<path d="M7432 9520 c0 -19 2 -27 5 -17 2 9 2 25 0 35 -3 9 -5 1 -5 -18z"/>
<path d="M9100 9530 c0 -5 10 -10 23 -10 18 0 19 2 7 10 -19 13 -30 13 -30 0z"/>
<path d="M9200 9510 c0 -5 5 -10 11 -10 5 0 7 5 4 10 -3 6 -8 10 -11 10 -2 0
-4 -4 -4 -10z"/>
<path d="M8427 9484 c-15 -15 -6 -24 26 -24 17 -1 59 -7 92 -15 33 -8 69 -15
80 -15 38 0 -17 27 -80 40 -103 21 -110 22 -118 14z"/>
<path d="M5940 9460 c0 -5 12 -10 28 -10 21 0 24 2 12 10 -20 13 -40 13 -40 0z"/>
<path d="M7749 9420 c-4 -107 5 -175 23 -164 12 8 3 149 -12 186 -7 20 -9 16
-11 -22z"/>
<path d="M7010 9440 c-11 -7 -8 -11 15 -20 17 -6 39 -14 50 -19 87 -37 95 -38
95 -11 0 12 -7 20 -17 21 -60 2 -98 10 -105 24 -10 17 -17 18 -38 5z"/>
<path d="M6105 9411 c-2 -5 8 -11 23 -14 35 -7 38 -3 7 11 -13 6 -27 7 -30 3z"/>
<path d="M6254 9369 c-9 -15 -6 -16 100 -44 106 -28 137 -28 59 0 -26 9 -59
22 -73 27 -51 21 -80 26 -86 17z"/>
<path d="M7097 9334 c-12 -12 4 -24 34 -24 31 0 39 14 13 24 -20 8 -39 8 -47
0z"/>
<path d="M7085 9290 c3 -5 15 -10 26 -10 10 0 19 5 19 10 0 6 -12 10 -26 10
-14 0 -23 -4 -19 -10z"/>
<path d="M6597 9259 c7 -7 15 -10 18 -7 3 3 -2 9 -12 12 -14 6 -15 5 -6 -5z"/>
<path d="M7350 9151 c0 -33 9 -44 29 -32 18 12 10 55 -11 59 -14 3 -18 -3 -18
-27z"/>
<path d="M6917 9155 c12 -8 50 -21 85 -29 34 -8 74 -17 88 -21 22 -6 23 -5 6
6 -37 23 -140 59 -170 59 -30 0 -30 0 -9 -15z"/>
<path d="M8492 9158 c3 -7 20 -16 39 -19 l34 -7 -24 19 c-26 21 -55 25 -49 7z"/>
<path d="M8330 9120 c-13 -9 -12 -13 8 -30 19 -15 28 -17 50 -9 15 6 48 7 75
4 39 -6 48 -4 45 6 -10 31 -143 52 -178 29z"/>
<path d="M7125 9100 c-3 -6 1 -13 10 -16 19 -8 30 0 20 15 -8 14 -22 14 -30 1z"/>
<path d="M8355 9049 c-11 -17 5 -28 53 -34 26 -3 59 -9 75 -11 42 -8 32 14
-13 26 -21 6 -41 14 -44 19 -7 11 -64 12 -71 0z"/>
<path d="M7907 9006 c-3 -8 -4 -22 -2 -33 13 -62 16 -73 25 -73 6 0 10 17 10
38 0 66 -19 105 -33 68z"/>
<path d="M9440 9012 c0 -14 56 -72 69 -72 6 0 11 -4 11 -8 0 -14 83 -92 97
-92 23 0 14 13 -44 68 -79 73 -133 116 -133 104z"/>
<path d="M9580 8966 c0 -15 69 -86 84 -86 5 0 20 -10 33 -22 13 -12 26 -19 29
-15 3 3 -7 16 -22 29 -15 13 -46 42 -68 66 -43 44 -56 51 -56 28z"/>
<path d="M9406 8891 c23 -21 49 -41 58 -44 9 -4 16 -11 16 -17 0 -5 7 -10 15
-10 9 0 18 -6 21 -14 9 -24 34 -28 34 -6 0 11 -6 20 -13 20 -8 0 -22 9 -32 20
-10 11 -24 20 -31 20 -8 0 -19 9 -26 20 -7 11 -21 20 -31 20 -10 0 -20 7 -23
15 -4 8 -11 15 -18 15 -6 0 8 -17 30 -39z"/>
<path d="M9800 8908 c0 -16 121 -131 167 -159 30 -17 20 -4 -46 63 -91 92
-121 116 -121 96z"/>
<path d="M9970 8860 c0 -6 7 -13 15 -16 8 -4 15 -12 15 -20 0 -8 5 -14 10 -14
6 0 10 7 10 15 0 8 -4 15 -10 15 -5 0 -10 7 -10 15 0 8 -7 15 -15 15 -8 0 -15
-5 -15 -10z"/>
<path d="M8385 8720 c-7 -11 29 -27 90 -40 22 -5 67 -16 100 -25 33 -9 71 -18
85 -21 l25 -5 -25 15 c-14 8 -32 15 -42 16 -9 0 -58 16 -108 35 -98 37 -115
41 -125 25z"/>
<path d="M8740 8612 c0 -13 125 -56 285 -97 72 -18 153 -40 180 -49 229 -71
287 -87 298 -83 13 4 -102 41 -237 76 -43 11 -84 25 -90 30 -6 4 -24 11 -41
14 -16 3 -97 29 -178 56 -164 56 -217 69 -217 53z"/>
<path d="M9534 8545 c24 -18 39 -20 34 -2 -3 6 -15 13 -29 15 -23 2 -23 2 -5
-13z"/>
<path d="M9555 8360 c28 -12 37 -12 30 0 -3 6 -16 10 -28 9 -21 0 -21 -1 -2
-9z"/>
<path d="M9618 8343 c7 -3 16 -2 19 1 4 3 -2 6 -13 5 -11 0 -14 -3 -6 -6z"/>
<path d="M9665 8330 c27 -12 43 -12 25 0 -8 5 -22 9 -30 9 -10 0 -8 -3 5 -9z"/>
<path d="M9785 8287 c57 -30 220 -75 232 -63 13 12 11 13 -182 66 -89 25 -100
24 -50 -3z"/>
<path d="M57 1629 c-10 -6 -27 -7 -40 -4 -21 7 -21 6 2 -11 18 -13 26 -14 29
-6 3 9 16 10 40 6 39 -7 40 -4 7 14 -14 7 -26 7 -38 1z"/>
<path d="M60 1585 c0 -9 9 -15 21 -15 18 0 19 2 5 15 -8 8 -17 15 -20 15 -3 0
-6 -7 -6 -15z"/>
<path d="M130 1590 c0 -5 7 -10 15 -10 8 0 15 -4 15 -10 0 -5 7 -10 15 -10 9
0 33 -11 55 -25 37 -23 45 -24 41 -2 -2 12 32 8 63 -8 15 -8 33 -15 39 -15 7
0 -5 9 -26 20 -20 11 -42 20 -48 20 -6 0 -17 7 -25 15 -9 9 -34 15 -59 15 -24
0 -47 5 -50 10 -3 6 -13 10 -21 10 -8 0 -14 -4 -14 -10z"/>
<path d="M0 1570 c0 -5 5 -10 11 -10 5 0 7 5 4 10 -3 6 -8 10 -11 10 -2 0 -4
-4 -4 -10z"/>
<path d="M145 1540 c3 -5 8 -10 11 -10 2 0 4 5 4 10 0 6 -5 10 -11 10 -5 0 -7
-4 -4 -10z"/>
<path d="M410 1509 c0 -5 -5 -7 -12 -3 -7 4 -8 3 -4 -4 10 -17 98 -53 114 -47
8 3 34 -4 58 -14 80 -36 46 -3 -40 39 -85 41 -116 49 -116 29z"/>
<path d="M641 1442 c31 -15 63 -32 70 -38 8 -6 31 -17 51 -23 20 -7 38 -17 40
-23 2 -5 15 -8 28 -6 20 2 1 15 -87 61 -62 31 -122 57 -135 57 -16 -1 -7 -9
33 -28z"/>
<path d="M620 1420 c0 -16 47 -42 67 -37 14 3 10 7 -14 17 -18 6 -33 16 -33
21 0 5 -4 9 -10 9 -5 0 -10 -4 -10 -10z"/>
<path d="M802 1409 c5 -16 66 -51 78 -44 4 3 13 -2 20 -10 7 -8 17 -15 23 -15
6 0 19 -7 29 -17 10 -9 21 -13 25 -10 12 12 -47 56 -90 67 -23 7 -53 18 -66
27 -17 11 -22 12 -19 2z"/>
<path d="M955 1371 c3 -5 22 -15 43 -22 20 -6 75 -30 122 -53 110 -53 107 -52
91 -33 -7 10 -20 17 -27 17 -8 0 -14 4 -14 10 0 5 -16 12 -35 16 -19 3 -35 10
-35 14 0 5 -17 14 -37 21 -21 6 -47 18 -58 25 -22 16 -59 19 -50 5z"/>
<path d="M1285 1265 c11 -8 28 -22 38 -30 9 -8 20 -15 23 -15 3 0 49 -25 101
-55 53 -30 106 -55 118 -55 12 0 52 -20 89 -45 52 -35 73 -43 95 -39 31 6 147
-42 184 -77 11 -10 28 -19 36 -19 32 0 -6 25 -155 105 -27 15 -72 32 -99 40
-28 7 -95 38 -149 69 -54 32 -104 55 -112 52 -8 -3 -53 15 -101 40 -49 24 -79
38 -68 29z"/>
<path d="M2054 905 c17 -13 34 -21 39 -18 5 3 -5 14 -22 24 -43 26 -52 23 -17
-6z"/>
<path d="M2960 566 c0 -2 28 -14 63 -26 174 -64 269 -102 337 -135 41 -21 109
-48 150 -62 41 -13 98 -35 125 -48 28 -12 70 -28 95 -35 25 -7 71 -23 102 -36
63 -26 116 -33 58 -7 -19 8 -48 21 -65 28 -39 18 -188 73 -245 92 -58 19 -262
103 -275 114 -12 8 -83 35 -135 50 -19 6 -48 16 -65 24 -68 31 -145 53 -145
41z"/>
<path d="M4680 551 c0 -5 14 -14 30 -20 17 -5 30 -16 30 -24 0 -19 172 -117
204 -117 25 0 88 -29 94 -42 2 -5 24 -8 48 -8 37 0 61 -10 129 -51 69 -42 90
-51 115 -46 16 4 30 3 30 -2 0 -5 19 -16 43 -26 81 -32 117 -49 117 -56 0 -11
39 -18 46 -8 3 5 -12 17 -33 25 -21 9 -84 38 -139 65 -56 27 -108 49 -115 49
-8 0 -85 36 -172 80 -87 43 -164 77 -171 74 -7 -3 -65 22 -129 56 -123 63
-127 65 -127 51z"/>
<path d="M4575 530 c3 -5 13 -10 21 -10 8 0 12 5 9 10 -3 6 -13 10 -21 10 -8
0 -12 -4 -9 -10z"/>
<path d="M4665 485 c22 -13 45 -25 51 -25 5 0 30 -13 55 -28 51 -33 95 -46
104 -32 3 5 -7 12 -22 15 -15 4 -35 11 -43 16 -8 5 -35 19 -60 30 -25 11 -57
27 -72 35 -44 24 -56 15 -13 -11z"/>
<path d="M1676 355 c3 -8 13 -17 22 -20 10 -3 35 -21 57 -40 45 -40 50 -41 59
-19 5 13 15 15 46 11 22 -3 40 -1 40 3 0 16 -96 68 -137 74 -35 5 -43 3 -43
-9 0 -19 -16 -19 -24 0 -3 8 -10 15 -15 15 -6 0 -8 -7 -5 -15z"/>
<path d="M1597 343 c-17 -16 -4 -43 36 -69 23 -16 44 -31 47 -35 10 -11 55
-39 62 -39 5 0 8 5 8 10 0 6 -4 10 -10 10 -5 0 -18 7 -27 15 -10 9 -38 31 -63
49 -25 18 -44 40 -44 49 2 19 1 20 -9 10z"/>
<path d="M1980 340 c20 -13 33 -13 25 0 -3 6 -14 10 -23 10 -15 0 -15 -2 -2
-10z"/>
<path d="M2055 340 c3 -5 1 -10 -4 -10 -6 0 -11 -5 -11 -11 0 -20 126 -65 251
-89 25 -5 74 -25 108 -45 35 -21 69 -34 79 -31 9 3 41 -8 71 -24 30 -17 60
-30 67 -30 7 0 41 -13 76 -30 34 -16 73 -30 86 -30 12 0 22 -4 22 -9 0 -11
100 -34 109 -25 6 6 -12 17 -24 15 -3 -1 -18 10 -33 24 -15 14 -39 25 -54 25
-15 0 -54 16 -87 35 -32 19 -68 35 -79 35 -10 0 -45 14 -77 31 -31 17 -64 28
-72 25 -8 -3 -41 8 -73 24 -33 17 -76 33 -96 36 -20 3 -50 14 -68 25 -17 10
-44 19 -61 19 -16 0 -48 11 -70 25 -41 25 -71 33 -60 15z"/>
<path d="M1636 319 c27 -30 121 -99 135 -99 19 0 -20 38 -84 81 -67 44 -78 48
-51 18z"/>
<path d="M1906 331 c-3 -5 1 -11 9 -14 9 -4 12 -1 8 9 -6 16 -10 17 -17 5z"/>
<path d="M3830 335 c0 -6 109 -77 133 -87 18 -8 114 -73 157 -107 46 -36 11
-34 -60 4 -77 40 -106 42 -43 2 53 -33 129 -60 152 -54 11 2 30 -3 43 -12 35
-24 81 -51 101 -57 9 -4 17 -10 17 -15 0 -5 7 -9 15 -9 8 0 15 5 15 10 0 6 -7
10 -15 10 -8 0 -15 3 -15 8 0 4 -24 18 -52 32 -29 14 -60 32 -69 40 -40 37
-190 140 -203 140 -6 0 -72 46 -86 60 -6 6 -79 40 -85 40 -3 0 -5 -2 -5 -5z"/>
<path d="M1945 300 c3 -5 11 -10 16 -10 6 0 7 5 4 10 -3 6 -11 10 -16 10 -6 0
-7 -4 -4 -10z"/>
<path d="M3985 300 c3 -5 13 -10 21 -10 8 0 17 -7 20 -15 4 -8 12 -15 19 -15
6 0 24 -11 39 -23 15 -13 63 -43 106 -66 50 -26 86 -53 101 -76 13 -19 30 -35
37 -35 6 0 12 -4 12 -9 0 -5 20 -15 45 -22 25 -7 45 -17 45 -21 0 -4 7 -8 15
-8 25 0 17 17 -11 24 -14 4 -37 20 -51 36 -13 16 -35 35 -47 42 -13 7 -43 26
-67 43 -50 34 -87 56 -144 86 -22 12 -42 25 -45 29 -5 8 -85 50 -95 50 -3 0
-3 -4 0 -10z"/>
<path d="M3865 260 c3 -5 14 -10 23 -10 15 0 15 2 2 10 -20 13 -33 13 -25 0z"/>
<path d="M1576 229 c20 -22 36 -25 28 -5 -3 8 -14 16 -26 19 -19 5 -19 5 -2
-14z"/>
<path d="M1620 190 c0 -6 8 -14 18 -17 9 -4 24 -14 32 -23 8 -9 24 -20 35 -23
11 -4 0 11 -25 33 -46 41 -60 48 -60 30z"/>
<path d="M3928 183 c6 -2 18 -2 25 0 6 3 1 5 -13 5 -14 0 -19 -2 -12 -5z"/>
<path d="M5595 170 c8 -13 129 -70 149 -70 9 0 16 -4 16 -9 0 -5 11 -12 25
-15 35 -9 139 -58 143 -68 6 -13 50 -9 56 5 5 10 7 10 12 0 7 -15 64 -18 64
-3 0 6 -6 10 -12 10 -7 0 -26 7 -43 16 -16 9 -43 24 -60 33 -16 8 -50 16 -75
17 -44 1 -234 67 -246 85 -3 5 -12 9 -20 9 -8 0 -12 -4 -9 -10z"/>
<path d="M1700 71 c0 -5 7 -12 16 -15 14 -5 15 -4 4 9 -14 17 -20 19 -20 6z"/>
<path d="M4428 63 c7 -3 16 -2 19 1 4 3 -2 6 -13 5 -11 0 -14 -3 -6 -6z"/>
<path d="M4472 40 c7 -11 21 -20 30 -20 10 0 18 -4 18 -10 0 -5 7 -10 15 -10
27 0 16 16 -20 30 -19 8 -35 17 -35 22 0 4 -5 8 -10 8 -6 0 -5 -8 2 -20z"/>
<path d="M2930 30 c0 -5 5 -10 11 -10 5 0 7 5 4 10 -3 6 -8 10 -11 10 -2 0 -4
-4 -4 -10z"/>
</g>
</svg>
